<?xml version="1.0" encoding="utf-8"?>
<!-- Generator: Adobe Illustrator 19.0.0, SVG Export Plug-In . SVG Version: 6.00 Build 0)  -->
<svg version="1.1" id="Layer_1" xmlns="http://www.w3.org/2000/svg" xmlns:xlink="http://www.w3.org/1999/xlink" x="0px" y="0px"
	 viewBox="-273 383 64.5 24" style="enable-background:new -273 383 64.5 24;" xml:space="preserve">
<style type="text/css">
	.st0{fill:#E8263A;}
	.st1{fill:none;stroke:#E8263A;stroke-miterlimit:10;}
</style>
<g>
	<path class="st0" d="M-255,388v1.7l-1.5,0.3v7.7c0,1.3-0.4,2.4-1.3,3.2c-0.9,0.8-2,1.2-3.3,1.2c-1.4,0-2.6-0.4-3.4-1.1
		c-0.8-0.7-1.2-1.7-1.2-3.1l0-0.1h2.7c0,0.7,0.2,1.3,0.5,1.6c0.3,0.3,0.8,0.5,1.4,0.5c0.5,0,0.9-0.2,1.3-0.6
		c0.4-0.4,0.5-0.9,0.5-1.6V390l-1.5-0.3V388h4.2H-255z"/>
	<path class="st0" d="M-255.3,400.4l1-0.1l4.2-12.2h2.8l4.2,12.2l1,0.1v1.7h-4.7v-1.7l1-0.2l-0.6-1.9h-4.5l-0.6,1.9l1,0.2v1.7h-4.7
		C-255.3,402-255.3,400.4-255.3,400.4z M-250.3,396.2h3.2l-1.6-4.9h-0.1L-250.3,396.2z"/>
	<path class="st0" d="M-241.4,400.4l1-0.1l4.2-12.2h2.8l4.2,12.2l1,0.1v1.7h-4.7v-1.7l1-0.2l-0.6-1.9h-4.5l-0.6,1.9l1,0.2v1.7h-4.7
		C-241.4,402-241.4,400.4-241.4,400.4z M-236.3,396.2h3.2l-1.6-4.9h-0.1L-236.3,396.2z"/>
	<path class="st0" d="M-220.7,388c1.6,0,2.8,0.4,3.7,1.2c0.9,0.8,1.4,1.9,1.4,3.2c0,1.3-0.5,2.4-1.4,3.2c-0.9,0.8-2.2,1.2-3.7,1.2
		h-2.3v3.1l1.5,0.3v1.7h-5.7v-1.7l1.5-0.3V390l-1.5-0.3V388h1.5H-220.7z M-223,394.8h2.3c0.8,0,1.4-0.2,1.8-0.6
		c0.4-0.4,0.6-1,0.6-1.6c0-0.7-0.2-1.2-0.6-1.7c-0.4-0.4-1-0.7-1.8-0.7h-2.3V394.8z"/>
</g>
<rect x="-272.4" y="383.6" class="st1" width="63.5" height="23"/>
</svg>
