<?xml version="1.0" encoding="utf-8"?>
<!-- Generator: Adobe Illustrator 17.0.0, SVG Export Plug-In . SVG Version: 6.00 Build 0)  -->
<!DOCTYPE svg PUBLIC "-//W3C//DTD SVG 1.1//EN" "http://www.w3.org/Graphics/SVG/1.1/DTD/svg11.dtd">
<svg version="1.1" xmlns="http://www.w3.org/2000/svg" xmlns:xlink="http://www.w3.org/1999/xlink" x="0px" y="0px"
	 width="64.541px" height="18.03px" viewBox="0 0 64.541 18.03" enable-background="new 0 0 64.541 18.03" xml:space="preserve">
<path fill="#23C6EC" d="M13.796,0v2.148l-1.904,0.366v9.924c0,1.717-0.56,3.078-1.678,4.083C9.095,17.527,7.68,18.03,5.971,18.03
	c-1.855,0-3.325-0.452-4.407-1.355c-1.083-0.903-1.604-2.234-1.563-3.992l0.024-0.073h3.467c0,0.936,0.224,1.618,0.671,2.044
	c0.447,0.428,1.05,0.641,1.807,0.641c0.659,0,1.219-0.254,1.679-0.763c0.459-0.508,0.689-1.206,0.689-2.093V2.515L6.435,2.148V0
	h5.457H13.796z"/>
<path fill="#23C6EC" d="M13.406,15.858l1.27-0.186L20.083,0h3.65l5.371,15.672l1.27,0.186v2.166h-6.055v-2.166l1.233-0.223
	l-0.781-2.476h-5.762l-0.781,2.476l1.233,0.223v2.166h-6.055V15.858z M19.851,10.498h4.077l-2.002-6.351h-0.073L19.851,10.498z"/>
<path fill="#23C6EC" d="M31.362,15.858l1.27-0.186L38.039,0h3.65l5.371,15.672l1.27,0.186v2.166h-6.055v-2.166l1.233-0.223
	l-0.781-2.476h-5.762l-0.781,2.476l1.233,0.223v2.166h-6.055V15.858z M37.807,10.498h4.077l-2.002-6.351h-0.073L37.807,10.498z"/>
<path fill="#23C6EC" d="M57.961,0c2.034,0,3.64,0.53,4.816,1.591c1.176,1.061,1.764,2.45,1.764,4.166
	c0,1.725-0.588,3.112-1.764,4.159c-1.176,1.048-2.782,1.572-4.816,1.572h-3.003v3.999l1.904,0.371v2.166h-7.361v-2.166l1.892-0.371
	V2.55l-1.892-0.371V0h1.892H57.961z M54.958,8.703h3.003c0.993,0,1.744-0.274,2.252-0.823c0.508-0.549,0.763-1.248,0.763-2.098
	c0-0.867-0.254-1.583-0.763-2.148c-0.509-0.565-1.26-0.848-2.252-0.848h-3.003V8.703z"/>
</svg>
