<?xml version="1.0" encoding="utf-8"?>
<!-- Generator: Adobe Illustrator 19.0.0, SVG Export Plug-In . SVG Version: 6.00 Build 0)  -->
<svg version="1.1" id="Layer_1" xmlns="http://www.w3.org/2000/svg" xmlns:xlink="http://www.w3.org/1999/xlink" x="0px" y="0px"
	 viewBox="-273 388 64.5 18" style="enable-background:new -273 388 64.5 18;" xml:space="preserve">
<style type="text/css">
	.st0{fill:#2ECC71;}
</style>
<path class="st0" d="M-259.2,388v2.1l-1.9,0.4v9.9c0,1.7-0.6,3.1-1.7,4.1c-1.1,1-2.5,1.5-4.2,1.5c-1.9,0-3.3-0.5-4.4-1.4
	c-1.1-0.9-1.6-2.2-1.6-4l0-0.1h3.5c0,0.9,0.2,1.6,0.7,2c0.4,0.4,1.1,0.6,1.8,0.6c0.7,0,1.2-0.3,1.7-0.8c0.5-0.5,0.7-1.2,0.7-2.1
	v-9.9l-1.9-0.4V388h5.5H-259.2z"/>
<path class="st0" d="M-259.6,403.8l1.3-0.2l5.4-15.7h3.6l5.4,15.7l1.3,0.2v2.2h-6.1v-2.2l1.2-0.2l-0.8-2.5h-5.8l-0.8,2.5l1.2,0.2
	v2.2h-6.1C-259.6,406-259.6,403.8-259.6,403.8z M-253.1,398.5h4.1l-2-6.4h-0.1L-253.1,398.5z"/>
<path class="st0" d="M-241.6,403.8l1.3-0.2l5.4-15.7h3.6l5.4,15.7l1.3,0.2v2.2h-6.1v-2.2l1.2-0.2l-0.8-2.5h-5.8l-0.8,2.5l1.2,0.2
	v2.2h-6.1C-241.6,406-241.6,403.8-241.6,403.8z M-235.2,398.5h4.1l-2-6.4h-0.1L-235.2,398.5z"/>
<path class="st0" d="M-215,388c2,0,3.6,0.5,4.8,1.6c1.2,1.1,1.8,2.4,1.8,4.2c0,1.7-0.6,3.1-1.8,4.2c-1.2,1-2.8,1.6-4.8,1.6h-3v4
	l1.9,0.4v2.2h-7.4v-2.2l1.9-0.4v-12.9l-1.9-0.4V388h1.9H-215z M-218,396.7h3c1,0,1.7-0.3,2.3-0.8c0.5-0.5,0.8-1.2,0.8-2.1
	c0-0.9-0.3-1.6-0.8-2.1s-1.3-0.8-2.3-0.8h-3V396.7z"/>
</svg>
