<?xml version="1.0" encoding="utf-8"?>
<!-- Generator: Adobe Illustrator 17.0.0, SVG Export Plug-In . SVG Version: 6.00 Build 0)  -->
<!DOCTYPE svg PUBLIC "-//W3C//DTD SVG 1.1//EN" "http://www.w3.org/Graphics/SVG/1.1/DTD/svg11.dtd">
<svg version="1.1" id="Layer_1" xmlns="http://www.w3.org/2000/svg" xmlns:xlink="http://www.w3.org/1999/xlink" x="0px" y="0px"
	 width="320px" height="150px" viewBox="0 0 320 150" enable-background="new 0 0 320 150" xml:space="preserve">
<g enable-background="new    ">
	<path fill="#FFFFFF" d="M60.308,132.568l-1.504-3.562H47.199l-1.504,3.562h-6.104l9.305-21.052h8.303l9.177,21.052H60.308z
		 M56.928,124.394l-3.38-7.974h-1.067l-3.379,7.974H56.928z"/>
	<path fill="#FFFFFF" d="M64.553,111.516h5.873l6.401,15.762h1.003l6.336-15.762H90l-8.56,21.052h-8.212L64.553,111.516z"/>
	<path fill="#FFFFFF" d="M109.154,124.441h5.347c0.035,1.028,0.051,1.692,0.051,1.99c0,1.624-0.201,2.894-0.604,3.809
		c-0.445,1.028-1.315,1.728-2.609,2.098c-1.294,0.369-3.53,0.555-6.709,0.555c-3.341,0-5.721-0.078-7.139-0.232
		c-1.418-0.154-2.486-0.452-3.207-0.895c-0.643-0.4-1.123-0.94-1.44-1.619c-0.317-0.678-0.523-1.609-0.617-2.792
		c-0.077-0.956-0.115-2.684-0.115-5.182c0-2.436,0.038-4.195,0.115-5.274c0.077-1.08,0.228-1.918,0.45-2.514
		c0.488-1.336,1.478-2.203,2.969-2.599c1.491-0.396,4.498-0.593,9.022-0.593c2.262,0,3.907,0.061,4.935,0.185
		c1.028,0.123,1.847,0.355,2.454,0.694c0.797,0.452,1.358,1.123,1.684,2.013c0.325,0.889,0.488,2.198,0.488,3.925
		c0,0.092-0.004,0.442-0.013,1.048h-5.347c-0.026-0.699-0.062-1.166-0.109-1.404c-0.048-0.236-0.144-0.431-0.289-0.586
		c-0.206-0.216-0.724-0.372-1.555-0.471c-0.831-0.097-2.091-0.146-3.779-0.146c-1.671,0-2.827,0.044-3.47,0.132
		s-1.097,0.26-1.362,0.516c-0.317,0.308-0.537,0.827-0.662,1.557c-0.124,0.73-0.186,1.892-0.186,3.486
		c0,1.593,0.056,2.718,0.167,3.37s0.325,1.123,0.643,1.411c0.3,0.278,0.778,0.463,1.433,0.555c0.655,0.092,1.814,0.138,3.476,0.138
		c2.048,0,3.411-0.041,4.093-0.123c0.681-0.082,1.142-0.262,1.381-0.54C108.969,126.594,109.136,125.757,109.154,124.441z"/>
	<path fill="#FFFFFF" d="M129.965,111.208c3.787,0,6.391,0.113,7.814,0.339c2.048,0.329,3.303,1.496,3.765,3.501
		c0.317,1.378,0.476,3.707,0.476,6.987c0,3.291-0.159,5.624-0.476,7.001c-0.463,2.005-1.718,3.173-3.765,3.501
		c-1.422,0.226-4.01,0.339-7.763,0.339c-3.822,0-6.444-0.113-7.865-0.339c-2.048-0.328-3.303-1.496-3.766-3.501
		c-0.317-1.378-0.475-3.752-0.475-7.125c0-3.209,0.158-5.496,0.475-6.863c0.463-2.005,1.718-3.172,3.766-3.501
		C123.565,111.321,126.169,111.208,129.965,111.208z M129.978,116.682c-2.836,0-4.541,0.088-5.115,0.262
		c-0.66,0.206-1.092,0.666-1.298,1.38c-0.206,0.715-0.308,2.136-0.308,4.264c0,1.285,0.056,2.216,0.167,2.792
		c0.214,1.07,0.861,1.681,1.941,1.836c0.797,0.123,2.343,0.185,4.639,0.185c2.151,0,3.581-0.047,4.293-0.138
		c0.711-0.093,1.238-0.298,1.581-0.617c0.308-0.288,0.518-0.712,0.63-1.273c0.112-0.559,0.167-1.477,0.167-2.753
		c0-1.511-0.043-2.622-0.129-3.331c-0.086-0.709-0.239-1.244-0.463-1.604c-0.283-0.452-0.75-0.733-1.401-0.841
		C134.03,116.737,132.463,116.682,129.978,116.682z"/>
	<path fill="#FFFFFF" d="M145.944,111.516h9.691l5.218,13.664l5.218-13.664h9.639v21.052h-5.269l0.129-15.762h-0.875l-6.618,15.762
		h-4.434l-6.619-15.762h-0.938l0.129,15.762h-5.27L145.944,111.516L145.944,111.516z"/>
	<path fill="#FFFFFF" d="M179.98,132.568v-21.052h12.017c2.381,0,3.915,0.058,4.601,0.171c1.739,0.277,2.915,0.948,3.528,2.012
		c0.612,1.064,0.92,2.964,0.92,5.699c0,2.602-0.253,4.426-0.759,5.475c-0.343,0.709-0.823,1.249-1.439,1.619
		c-0.618,0.369-1.462,0.628-2.533,0.772c-0.762,0.102-2.185,0.154-4.266,0.154h-6.722v5.152H179.98z M185.327,122.158h6.683
		c1.217-0.01,1.961-0.03,2.23-0.061c0.27-0.03,0.513-0.113,0.727-0.247c0.273-0.175,0.463-0.44,0.565-0.794
		c0.102-0.355,0.154-0.907,0.154-1.657c0-0.75-0.064-1.301-0.193-1.651c-0.129-0.349-0.356-0.601-0.681-0.755
		c-0.24-0.113-1.174-0.186-2.802-0.216h-6.683V122.158z"/>
	<path fill="#FFFFFF" d="M222.474,132.568l-1.505-3.562h-11.606l-1.504,3.562h-6.104l9.305-21.052h8.303l9.176,21.052H222.474z
		 M219.093,124.394l-3.38-7.974h-1.066l-3.379,7.974H219.093z"/>
	<path fill="#FFFFFF" d="M231.152,111.516h9.37l9.19,15.701h0.552l-0.129-15.701h5.436v21.052h-9.291l-9.229-15.701h-0.579
		l0.116,15.701h-5.436L231.152,111.516L231.152,111.516z"/>
	<path fill="#FFFFFF" d="M258.081,111.516h7.03l5.719,8.436l5.475-8.436h6.966l-9.6,13.603v7.449h-5.527v-7.449L258.081,111.516z"/>
</g>
<g>
	<g>
		<polygon fill="#FFFFFF" points="136.414,61.78 122.732,86.978 135.961,86.978 143.225,73.606 		"/>
		<path fill="#FFFFFF" d="M162.551,37.999c0.061-0.11,0.117-0.2,0.167-0.273c0.052,0.071,0.11,0.159,0.174,0.267l11.063,19.066
			l6.55-11.979l-8.915-15.363c-2.239-3.859-5.47-6.061-8.884-6.061c-0.048,0-0.096,0-0.143,0.001
			c-3.466,0.062-6.706,2.389-8.889,6.383l-8.955,16.392l6.811,11.738L162.551,37.999z"/>
		<polygon fill="#FFFFFF" points="189.119,59.993 182.579,72.009 191.112,86.978 204.388,86.978 204.533,86.666 		"/>
	</g>
	<path fill="#FFFFFF" d="M191.26,31.827l-26.509,48.538c-0.061,0.11-0.117,0.23-0.167,0.302c-0.052-0.071-0.11-0.145-0.174-0.253
		l-12.876-22.184l-6.811-11.793l-8.445-14.61h-13.5l32.935,56.821c2.239,3.86,5.47,6.09,8.884,6.09c0.048,0,0.096,0.014,0.144,0.013
		c3.466-0.062,6.706-2.382,8.89-6.375l9-16.456l6.55-12.036l15.31-28.057L191.26,31.827L191.26,31.827z"/>
</g>
</svg>
