<?xml version="1.0" encoding="utf-8"?>
<!-- Generator: Adobe Illustrator 17.0.0, SVG Export Plug-In . SVG Version: 6.00 Build 0)  -->
<!DOCTYPE svg PUBLIC "-//W3C//DTD SVG 1.1//EN" "http://www.w3.org/Graphics/SVG/1.1/DTD/svg11.dtd">
<svg version="1.1" id="Layer_1" xmlns="http://www.w3.org/2000/svg" xmlns:xlink="http://www.w3.org/1999/xlink" x="0px" y="0px"
	 width="320px" height="150px" viewBox="0 0 320 150" enable-background="new 0 0 320 150" xml:space="preserve">
<g>
	<path fill="#FFFFFF" d="M59.66,110.488v3.799H48.28v7.599h9.605v3.817H48.28v10.457h-4.81v-25.672H59.66L59.66,110.488z"/>
	<path fill="#FFFFFF" d="M83.362,136.161h-3.693c-0.415,0-0.755-0.104-1.02-0.311c-0.266-0.207-0.459-0.465-0.577-0.772
		l-1.917-5.237H65.52l-1.917,5.237c-0.095,0.272-0.282,0.521-0.56,0.745c-0.279,0.225-0.618,0.336-1.021,0.336h-3.711l10.085-25.672
		h4.883L83.362,136.161z M66.744,126.467h8.184l-3.125-8.539c-0.142-0.379-0.299-0.826-0.47-1.34
		c-0.172-0.515-0.341-1.074-0.506-1.679c-0.166,0.604-0.329,1.166-0.488,1.687c-0.16,0.522-0.317,0.977-0.47,1.368L66.744,126.467z"
		/>
	<path fill="#FFFFFF" d="M99.766,115.157c-0.131,0.261-0.28,0.444-0.452,0.55c-0.173,0.107-0.375,0.16-0.613,0.16
		s-0.504-0.091-0.798-0.276c-0.297-0.184-0.646-0.388-1.048-0.613c-0.403-0.224-0.873-0.428-1.411-0.612
		c-0.539-0.183-1.175-0.276-1.909-0.276c-0.662,0-1.24,0.08-1.731,0.241c-0.491,0.159-0.905,0.381-1.243,0.666
		c-0.338,0.284-0.589,0.625-0.755,1.021c-0.166,0.396-0.248,0.831-0.248,1.304c0,0.604,0.168,1.107,0.506,1.509
		c0.338,0.403,0.785,0.745,1.34,1.03c0.556,0.284,1.189,0.539,1.899,0.764c0.71,0.225,1.435,0.464,2.175,0.72
		c0.739,0.255,1.465,0.55,2.175,0.888c0.71,0.338,1.343,0.764,1.899,1.279c0.556,0.514,1.003,1.146,1.34,1.891
		c0.338,0.744,0.506,1.651,0.506,2.716c0,1.16-0.199,2.246-0.595,3.258c-0.396,1.012-0.977,1.895-1.739,2.645
		c-0.764,0.752-1.695,1.343-2.797,1.776c-1.1,0.431-2.361,0.648-3.781,0.648c-0.816,0-1.621-0.08-2.415-0.241
		c-0.793-0.159-1.554-0.387-2.281-0.682c-0.728-0.296-1.409-0.651-2.042-1.065c-0.633-0.416-1.199-0.876-1.695-1.385l1.385-2.29
		c0.131-0.165,0.286-0.305,0.47-0.417c0.183-0.112,0.388-0.169,0.613-0.169c0.296,0,0.616,0.122,0.958,0.365
		c0.344,0.242,0.749,0.512,1.216,0.808c0.468,0.296,1.019,0.565,1.652,0.808c0.633,0.243,1.394,0.364,2.281,0.364
		c1.361,0,2.415-0.322,3.161-0.967c0.745-0.645,1.118-1.571,1.118-2.779c0-0.675-0.169-1.225-0.506-1.652
		c-0.336-0.425-0.785-0.784-1.34-1.074c-0.556-0.29-1.189-0.536-1.899-0.737c-0.71-0.2-1.432-0.419-2.167-0.656
		c-0.734-0.238-1.456-0.521-2.166-0.853c-0.71-0.331-1.343-0.764-1.899-1.296s-1.003-1.198-1.34-1.996
		c-0.337-0.798-0.506-1.784-0.506-2.957c0-0.935,0.186-1.847,0.558-2.735c0.373-0.888,0.917-1.674,1.633-2.361
		c0.716-0.686,1.595-1.237,2.635-1.651c1.041-0.413,2.231-0.621,3.569-0.621c1.515,0,2.911,0.237,4.189,0.71
		c1.278,0.473,2.367,1.136,3.267,1.989L99.766,115.157z"/>
	<path fill="#FFFFFF" d="M126.716,136.161h-4.812v-11.22h-12.037v11.22h-4.81v-25.672h4.81v11.042h12.037v-11.042h4.812
		C126.716,110.488,126.716,136.161,126.716,136.161z"/>
	<path fill="#FFFFFF" d="M137.28,136.161h-4.794v-25.672h4.794V136.161z"/>
	<path fill="#FFFFFF" d="M167.674,123.325c0,1.882-0.313,3.625-0.942,5.23c-0.628,1.603-1.509,2.992-2.645,4.163
		c-1.137,1.172-2.503,2.086-4.101,2.742c-1.598,0.658-3.368,0.987-5.308,0.987c-1.941,0-3.714-0.329-5.317-0.987
		c-1.604-0.656-2.976-1.57-4.119-2.742c-1.142-1.172-2.027-2.561-2.654-4.163c-0.627-1.604-0.942-3.348-0.942-5.23
		c0-1.882,0.313-3.625,0.942-5.229c0.628-1.603,1.513-2.993,2.654-4.163c1.142-1.172,2.515-2.086,4.119-2.743
		c1.604-0.656,3.376-0.986,5.317-0.986c1.94,0,3.711,0.332,5.308,0.994c1.598,0.662,2.965,1.577,4.101,2.742
		c1.135,1.166,2.017,2.551,2.645,4.155C167.359,119.7,167.674,121.443,167.674,123.325z M162.774,123.325
		c0-1.409-0.186-2.672-0.56-3.791c-0.374-1.119-0.909-2.069-1.607-2.849c-0.699-0.781-1.547-1.38-2.548-1.793
		c-1-0.415-2.127-0.621-3.382-0.621s-2.385,0.207-3.391,0.621c-1.006,0.415-1.862,1.012-2.565,1.793
		c-0.703,0.78-1.246,1.731-1.624,2.849c-0.379,1.118-0.568,2.382-0.568,3.791c0,1.41,0.189,2.673,0.568,3.791
		c0.379,1.118,0.92,2.065,1.624,2.841c0.703,0.776,1.558,1.37,2.565,1.784c1.007,0.416,2.136,0.621,3.391,0.621
		s2.382-0.206,3.382-0.621c1-0.415,1.849-1.008,2.548-1.784s1.234-1.723,1.607-2.841
		C162.587,125.998,162.774,124.734,162.774,123.325z"/>
	<path fill="#FFFFFF" d="M174.474,110.515c0.143,0.019,0.269,0.054,0.382,0.107c0.111,0.054,0.222,0.131,0.329,0.231
		c0.106,0.101,0.224,0.234,0.354,0.4l13.476,17.167c-0.048-0.415-0.079-0.819-0.098-1.216c-0.018-0.396-0.026-0.766-0.026-1.11
		v-15.606h4.208v25.672h-2.468c-0.379,0-0.692-0.06-0.942-0.178c-0.249-0.118-0.491-0.331-0.727-0.639l-13.423-17.097
		c0.036,0.379,0.063,0.755,0.08,1.126c0.016,0.373,0.027,0.714,0.027,1.021v15.765h-4.208v-25.672h2.503
		C174.154,110.488,174.332,110.498,174.474,110.515z"/>
	<path fill="#FFFFFF" d="M227.699,136.161h-3.693c-0.415,0-0.755-0.104-1.021-0.311c-0.266-0.207-0.459-0.465-0.576-0.772
		l-1.917-5.237h-10.635l-1.917,5.237c-0.096,0.272-0.282,0.521-0.56,0.745c-0.278,0.225-0.618,0.336-1.021,0.336h-3.71
		l10.083-25.672h4.884L227.699,136.161z M211.082,126.467h8.184l-3.125-8.539c-0.142-0.379-0.299-0.826-0.47-1.34
		c-0.172-0.515-0.34-1.074-0.506-1.679c-0.165,0.604-0.328,1.166-0.488,1.687s-0.317,0.977-0.47,1.368L211.082,126.467z"/>
	<path fill="#FFFFFF" d="M253.14,123.325c0,1.882-0.313,3.611-0.942,5.184c-0.628,1.575-1.509,2.93-2.645,4.066
		c-1.137,1.136-2.504,2.017-4.101,2.645c-1.599,0.628-3.368,0.942-5.308,0.942h-9.8V110.49h9.8c1.94,0,3.71,0.318,5.308,0.95
		c1.598,0.634,2.964,1.515,4.101,2.646c1.136,1.13,2.017,2.482,2.645,4.056C252.827,119.715,253.14,121.443,253.14,123.325z
		 M248.259,123.325c0-1.409-0.19-2.672-0.568-3.791c-0.379-1.118-0.917-2.065-1.616-2.841c-0.699-0.774-1.548-1.369-2.549-1.784
		c-0.999-0.415-2.127-0.621-3.382-0.621h-4.989v18.074h4.989c1.253,0,2.382-0.206,3.382-0.621c1-0.415,1.85-1.008,2.549-1.784
		s1.237-1.723,1.616-2.841C248.068,125.998,248.259,124.734,248.259,123.325z"/>
	<path fill="#FFFFFF" d="M279.682,123.325c0,1.882-0.313,3.611-0.941,5.184c-0.628,1.575-1.509,2.93-2.645,4.066
		c-1.137,1.136-2.504,2.017-4.101,2.645c-1.599,0.628-3.368,0.942-5.308,0.942h-9.8V110.49h9.8c1.94,0,3.71,0.318,5.308,0.95
		c1.598,0.634,2.964,1.515,4.101,2.646c1.135,1.13,2.017,2.482,2.645,4.056C279.369,119.715,279.682,121.443,279.682,123.325z
		 M274.799,123.325c0-1.409-0.19-2.672-0.568-3.791c-0.378-1.118-0.917-2.065-1.616-2.841c-0.699-0.774-1.548-1.369-2.549-1.784
		c-0.999-0.415-2.127-0.621-3.382-0.621h-4.989v18.074h4.989c1.253,0,2.382-0.206,3.382-0.621c1-0.415,1.85-1.008,2.549-1.784
		c0.699-0.776,1.237-1.723,1.616-2.841C274.61,125.998,274.799,124.734,274.799,123.325z"/>
</g>
<g>
	<g>
		<g>
			<polygon fill="#FFFFFF" points="189.387,86.204 189.38,86.21 189.367,86.222 			"/>
		</g>
		<path fill="#FFFFFF" d="M217.988,47.466l-26.184-26.184c-1.995-1.995-4.632-3.002-7.242-2.998c-2.611-0.003-5.248,1.003-7.239,3
			l-2.503,2.503l1.69,1.689l0.482,0.484l1.69,1.688l2.503-2.503c0.94-0.939,2.145-1.396,3.378-1.4
			c1.231,0.004,2.438,0.46,3.382,1.401l26.184,26.184c0.937,0.939,1.394,2.146,1.397,3.377c-0.003,1.23-0.46,2.438-1.401,3.382
			l-26.423,26.424c-0.94,0.937-2.147,1.395-3.381,1.398c-1.231-0.003-2.439-0.461-3.376-1.398l-5.884-5.883l-0.482-0.483
			l-1.689-1.689l-1.69-1.69l-4.194-4.194l-1.69,1.69l-0.482,0.482l-1.69,1.69l5.884,5.883l1.69,1.689l3.86,3.86l2.504,2.986
			c1.993,1.994,4.63,3.481,7.239,3.481h0.007c2.61,0,5.245-1.487,7.236-3.481l26.426-26.666c1.993-1.993,3.002-4.75,2.999-7.36
			C220.989,52.215,219.981,49.458,217.988,47.466z M189.367,86.222l0.013-0.012c0.002-0.003,0.005-0.005,0.007-0.007L189.367,86.222
			z"/>
		<path fill="#FFFFFF" d="M169.751,33.198l-2.173-2.171l-4.193,4.193l-3.379,3.378l-0.483,0.483l-1.689,1.69l-1.69,1.689
			l-5.248,5.248c-1.996,1.991-3.003,4.629-3,7.241c-0.003,2.611,1.006,5.247,3,7.24l5.008,5.007l1.689-1.689l0.482-0.483l1.69-1.689
			l-5.006-5.007c-0.939-0.941-1.398-2.147-1.399-3.379c0.001-1.234,0.459-2.44,1.396-3.377l16.684-16.683L169.751,33.198z"/>
		<path fill="#FFFFFF" d="M161.446,83.52h0.013l-0.008-0.001C161.451,83.519,161.448,83.52,161.446,83.52z M167.401,54.705v0.005
			V54.7C167.401,54.7,167.401,54.703,167.401,54.705z M138.828,26.133c0.002,0,0.005,0,0.005,0h-0.012
			C138.823,26.133,138.826,26.133,138.828,26.133z M138.594,83.52c-0.003,0-0.005-0.001-0.005-0.001
			c-0.004,0-0.008,0.001-0.008,0.001H138.594z M156.145,39.081l1.69-1.69l0.482-0.482l1.69-1.689l-4.193-4.194l-1.688-1.688
			l-1.691-1.691l-0.482-0.483l-3.378-3.378l-2.504-2.504c-1.996-1.995-4.633-3.002-7.242-2.998c-2.611-0.003-5.248,1.003-7.239,3
			l-26.426,26.424c-1.994,1.991-3.002,4.629-2.999,7.241c-0.003,2.611,1.006,5.247,2.999,7.24l26.186,26.664
			c1.993,1.994,4.63,3.481,7.239,3.481h0.007c2.608,0,5.244-1.487,7.235-3.481l2.504-2.745l-2.171-2.291l-1.69-1.75l-2.504,2.474
			c-0.94,0.937-2.146,1.38-3.379,1.383c-1.233-0.003-2.441-0.468-3.378-1.406L109.025,58.33c-0.94-0.94-1.399-2.149-1.4-3.381
			c0.001-1.234,0.46-2.441,1.397-3.378l26.427-26.428c0.942-0.939,2.147-1.396,3.379-1.4c1.231,0.004,2.438,0.46,3.381,1.401
			l2.503,2.502l1.689,1.691l1.69,1.69l0.482,0.482l1.69,1.69l1.689,1.689L156.145,39.081z M172.253,47.466l-5.006-5.006l-1.69,1.689
			l-0.483,0.482l-1.689,1.69l5.008,5.007c0.937,0.939,1.395,2.146,1.396,3.377c-0.002,1.23-0.459,2.438-1.4,3.382l-5.246,5.246
			l-1.689,1.689l-3.861,3.861l-1.689,1.69l-4.193,4.193l1.69,1.69l0.482,0.482l1.688,1.69l4.193-4.194l1.69-1.689l1.689-1.69
			l0.483-0.484l1.69-1.689l1.689-1.688l5.248-5.249c1.994-1.993,3.002-4.63,3-7.24C175.254,52.095,174.247,49.458,172.253,47.466z"
			/>
		<path fill="#FFFFFF" d="M169.027,83.697l-1.69-1.69l-2.504,2.504c-0.94,0.937-2.146,1.395-3.38,1.398
			c-1.231-0.003-2.44-0.461-3.376-1.398l-5.883-5.883l-0.482-0.483l-1.69-1.689l-18.13-18.129c-0.939-0.941-1.398-2.147-1.4-3.379
			c0.002-1.234,0.461-2.44,1.398-3.377l16.682-16.683l-1.69-1.689l-0.482-0.483l-1.689-1.688l-16.682,16.68
			c-1.995,1.991-3.004,4.629-3,7.241c-0.004,2.611,1.006,5.247,3,7.24l16.442,16.44l1.688,1.69l1.691,1.689l3.861,3.86l2.504,2.986
			c1.993,1.994,4.629,3.481,7.238,3.481h0.008c2.608,0,5.244-1.487,7.234-3.481l2.504-2.745l-1.69-1.809L169.027,83.697z
			 M195.12,47.466l-16.439-16.441l-1.69-1.688l-1.689-1.691l-0.483-0.483l-3.378-3.378l-2.504-2.504
			c-1.996-1.995-4.632-3.002-7.242-2.998c-2.611-0.003-5.248,1.003-7.239,3l-2.503,2.503l1.689,1.689l0.484,0.484l1.688,1.688
			l2.504-2.503c0.941-0.939,2.145-1.396,3.378-1.4c1.232,0.004,2.438,0.46,3.381,1.401l2.503,2.502l1.691,1.691l1.688,1.69
			l0.482,0.482l1.69,1.69l18.13,18.13c0.937,0.939,1.396,2.146,1.398,3.377c-0.003,1.23-0.461,2.438-1.402,3.382l-16.678,16.677
			l1.69,1.69l0.482,0.482l1.689,1.69l16.682-16.683c1.993-1.993,3.001-4.63,3-7.24C198.121,52.095,197.113,49.458,195.12,47.466z"/>
	</g>
</g>
</svg>
