<?xml version="1.0" encoding="utf-8"?>
<!-- Generator: Adobe Illustrator 17.0.0, SVG Export Plug-In . SVG Version: 6.00 Build 0)  -->
<!DOCTYPE svg PUBLIC "-//W3C//DTD SVG 1.1//EN" "http://www.w3.org/Graphics/SVG/1.1/DTD/svg11.dtd">
<svg version="1.1" id="Layer_1" xmlns="http://www.w3.org/2000/svg" xmlns:xlink="http://www.w3.org/1999/xlink" x="0px" y="0px"
	 width="320px" height="150px" viewBox="0 0 320 150" enable-background="new 0 0 320 150" xml:space="preserve">
<g>
	<path fill="#FFFFFF" d="M57.008,126.998c0,1.405-0.173,2.672-0.518,3.801c-0.345,1.128-0.861,2.09-1.547,2.884
		c-0.685,0.795-1.54,1.405-2.565,1.831c-1.025,0.426-2.217,0.639-3.576,0.639c-0.622,0-1.233-0.037-1.831-0.112
		c-0.599-0.075-1.226-0.193-1.883-0.354l0.242-2.764c0.023-0.253,0.118-0.458,0.285-0.614c0.167-0.155,0.412-0.234,0.734-0.234
		c0.195,0,0.452,0.041,0.769,0.121c0.317,0.081,0.717,0.121,1.201,0.121c0.656,0,1.237-0.095,1.745-0.286
		c0.507-0.19,0.929-0.492,1.27-0.907c0.34-0.414,0.596-0.953,0.769-1.616c0.173-0.662,0.259-1.464,0.259-2.41v-16.202h4.647
		C57.008,110.898,57.008,126.998,57.008,126.998z"/>
	<path fill="#FFFFFF" d="M77.807,110.899v3.697H66.733v6.927h8.723v3.576h-8.723v7.065h11.072v3.714H62.052v-24.978
		C62.052,110.899,77.807,110.899,77.807,110.899z"/>
	<path fill="#FFFFFF" d="M103.787,135.876h-3.593c-0.404,0-0.734-0.1-0.993-0.302c-0.259-0.202-0.446-0.452-0.561-0.751
		l-1.865-5.096H86.426l-1.865,5.096c-0.092,0.265-0.274,0.508-0.544,0.726c-0.27,0.218-0.602,0.328-0.993,0.328h-3.61l9.812-24.978
		h4.75L103.787,135.876z M87.618,126.445h7.964l-3.04-8.309c-0.138-0.368-0.291-0.803-0.457-1.305
		c-0.167-0.501-0.331-1.045-0.493-1.632c-0.162,0.588-0.32,1.134-0.475,1.642c-0.155,0.507-0.309,0.949-0.457,1.33L87.618,126.445z"
		/>
	<path fill="#FFFFFF" d="M109.314,110.924c0.138,0.017,0.262,0.052,0.372,0.103c0.11,0.052,0.215,0.127,0.32,0.225
		c0.103,0.098,0.218,0.227,0.345,0.389l13.111,16.704c-0.046-0.403-0.078-0.797-0.095-1.183c-0.017-0.385-0.026-0.745-0.026-1.08
		v-15.184h4.094v24.978h-2.401c-0.369,0-0.674-0.058-0.915-0.173c-0.242-0.115-0.478-0.322-0.708-0.622l-13.059-16.635
		c0.035,0.368,0.06,0.734,0.078,1.096c0.017,0.362,0.026,0.694,0.026,0.993v15.34h-4.094v-24.978h2.435
		C109.003,110.899,109.175,110.907,109.314,110.924z"/>
	<path fill="#FFFFFF" d="M145.865,115.441c-0.127,0.254-0.274,0.433-0.44,0.536c-0.167,0.103-0.366,0.155-0.596,0.155
		c-0.23,0-0.489-0.089-0.778-0.268c-0.288-0.178-0.628-0.377-1.019-0.595c-0.392-0.219-0.85-0.418-1.373-0.596
		c-0.524-0.178-1.143-0.268-1.857-0.268c-0.645,0-1.207,0.078-1.684,0.233c-0.477,0.156-0.881,0.372-1.209,0.648
		c-0.328,0.277-0.572,0.607-0.734,0.993c-0.162,0.386-0.242,0.81-0.242,1.27c0,0.588,0.164,1.077,0.492,1.468
		c0.328,0.391,0.762,0.726,1.305,1.002c0.541,0.277,1.158,0.524,1.848,0.742c0.69,0.218,1.396,0.452,2.116,0.699
		c0.719,0.247,1.425,0.536,2.116,0.864c0.691,0.328,1.306,0.742,1.848,1.243c0.541,0.501,0.976,1.115,1.305,1.841
		c0.328,0.725,0.492,1.607,0.492,2.643c0,1.128-0.193,2.186-0.579,3.17c-0.386,0.985-0.95,1.843-1.693,2.574
		c-0.742,0.732-1.65,1.307-2.721,1.728c-1.071,0.42-2.298,0.63-3.679,0.63c-0.794,0-1.578-0.078-2.349-0.234
		c-0.771-0.155-1.511-0.376-2.219-0.666c-0.708-0.287-1.37-0.633-1.987-1.036c-0.616-0.403-1.166-0.853-1.65-1.348l1.348-2.229
		c0.126-0.161,0.279-0.296,0.457-0.405c0.179-0.11,0.377-0.164,0.596-0.164c0.288,0,0.599,0.119,0.933,0.354
		c0.334,0.236,0.728,0.498,1.183,0.786c0.455,0.288,0.991,0.551,1.607,0.785c0.616,0.236,1.356,0.354,2.219,0.354
		c1.325,0,2.349-0.313,3.075-0.94c0.725-0.628,1.088-1.529,1.088-2.704c0-0.656-0.164-1.192-0.492-1.607
		c-0.329-0.414-0.763-0.762-1.305-1.045c-0.541-0.282-1.158-0.52-1.848-0.717c-0.691-0.195-1.393-0.408-2.108-0.639
		c-0.714-0.23-1.416-0.507-2.107-0.829c-0.691-0.322-1.307-0.742-1.848-1.261c-0.541-0.518-0.976-1.166-1.305-1.944
		c-0.329-0.778-0.492-1.736-0.492-2.876c0-0.909,0.181-1.797,0.544-2.659c0.362-0.864,0.893-1.63,1.589-2.298
		c0.697-0.668,1.552-1.203,2.565-1.607c1.013-0.403,2.17-0.604,3.472-0.604c1.474,0,2.833,0.23,4.076,0.691
		c1.243,0.46,2.303,1.106,3.178,1.935L145.865,115.441z"/>
	<path fill="#FFFFFF" d="M178.755,135.876h-4.681v-10.917h-11.712v10.917h-4.681v-24.978h4.681v10.745h11.712v-10.745h4.681V135.876
		z"/>
	<path fill="#FFFFFF" d="M207.759,123.387c0,1.831-0.305,3.527-0.916,5.087s-1.468,2.911-2.574,4.051s-2.436,2.03-3.99,2.67
		c-1.555,0.639-3.277,0.959-5.166,0.959c-1.888,0-3.613-0.32-5.173-0.959c-1.561-0.639-2.897-1.529-4.008-2.67
		c-1.112-1.14-1.973-2.491-2.583-4.051c-0.611-1.56-0.916-3.256-0.916-5.087s0.305-3.527,0.916-5.087
		c0.61-1.56,1.471-2.911,2.583-4.052c1.111-1.139,2.447-2.03,4.008-2.669c1.56-0.639,3.285-0.959,5.173-0.959
		c1.889,0,3.611,0.322,5.166,0.968c1.554,0.645,2.884,1.535,3.99,2.669c1.106,1.134,1.963,2.482,2.574,4.043
		S207.759,121.557,207.759,123.387z M202.991,123.387c0-1.37-0.181-2.6-0.544-3.688c-0.362-1.087-0.884-2.012-1.563-2.772
		c-0.68-0.76-1.505-1.342-2.48-1.745c-0.972-0.403-2.071-0.604-3.29-0.604s-2.32,0.202-3.299,0.604s-1.811,0.984-2.496,1.745
		c-0.686,0.76-1.212,1.684-1.58,2.772c-0.368,1.088-0.552,2.318-0.552,3.688s0.184,2.6,0.552,3.687
		c0.369,1.088,0.895,2.01,1.58,2.764c0.685,0.755,1.517,1.334,2.496,1.736s2.078,0.604,3.299,0.604s2.318-0.202,3.29-0.604
		c0.973-0.403,1.799-0.981,2.48-1.736c0.679-0.753,1.2-1.675,1.563-2.764C202.81,125.987,202.991,124.757,202.991,123.387z"/>
	<path fill="#FFFFFF" d="M221.475,132.129c0.898,0,1.702-0.15,2.41-0.449c0.708-0.299,1.307-0.719,1.797-1.262
		c0.489-0.541,0.864-1.198,1.122-1.968c0.259-0.772,0.389-1.635,0.389-2.592v-14.959h4.647v14.959c0,1.486-0.239,2.859-0.717,4.12
		c-0.477,1.262-1.166,2.349-2.064,3.265c-0.898,0.916-1.987,1.63-3.265,2.143c-1.278,0.512-2.719,0.769-4.318,0.769
		s-3.04-0.257-4.318-0.769c-1.277-0.513-2.364-1.227-3.256-2.143c-0.892-0.916-1.579-2.003-2.056-3.265
		c-0.477-1.261-0.717-2.634-0.717-4.12v-14.959h4.647v14.942c0,0.956,0.131,1.82,0.389,2.591c0.259,0.772,0.63,1.431,1.115,1.978
		c0.483,0.547,1.08,0.97,1.788,1.27C219.774,131.979,220.577,132.129,221.475,132.129z"/>
	<path fill="#FFFFFF" d="M249.96,115.441c-0.127,0.254-0.274,0.433-0.44,0.536s-0.365,0.155-0.595,0.155
		c-0.231,0-0.489-0.089-0.778-0.268c-0.288-0.178-0.628-0.377-1.019-0.595c-0.392-0.219-0.85-0.418-1.373-0.596
		c-0.524-0.178-1.143-0.268-1.857-0.268c-0.645,0-1.206,0.078-1.684,0.233c-0.477,0.156-0.881,0.372-1.21,0.648
		c-0.328,0.277-0.572,0.607-0.734,0.993c-0.162,0.386-0.242,0.81-0.242,1.27c0,0.588,0.164,1.077,0.492,1.468
		c0.328,0.391,0.762,0.726,1.305,1.002c0.541,0.277,1.158,0.524,1.848,0.742c0.69,0.218,1.396,0.452,2.115,0.699
		c0.719,0.247,1.426,0.536,2.116,0.864c0.69,0.328,1.307,0.742,1.848,1.243c0.54,0.501,0.976,1.115,1.305,1.841
		c0.328,0.725,0.492,1.607,0.492,2.643c0,1.128-0.193,2.186-0.579,3.17c-0.386,0.985-0.95,1.843-1.693,2.574
		c-0.742,0.732-1.65,1.307-2.72,1.728c-1.072,0.42-2.298,0.63-3.679,0.63c-0.795,0-1.579-0.078-2.349-0.234
		c-0.772-0.155-1.512-0.376-2.22-0.666c-0.708-0.287-1.37-0.633-1.987-1.036c-0.616-0.404-1.166-0.853-1.65-1.348l1.348-2.229
		c0.127-0.161,0.279-0.296,0.457-0.405c0.178-0.11,0.377-0.164,0.596-0.164c0.287,0,0.598,0.119,0.932,0.354
		c0.333,0.236,0.729,0.498,1.183,0.786c0.455,0.288,0.991,0.551,1.607,0.785c0.616,0.236,1.356,0.354,2.22,0.354
		c1.324,0,2.349-0.313,3.074-0.94c0.726-0.628,1.088-1.529,1.088-2.704c0-0.656-0.164-1.192-0.492-1.607s-0.763-0.762-1.305-1.045
		c-0.541-0.282-1.158-0.52-1.848-0.717c-0.691-0.195-1.393-0.408-2.108-0.639c-0.714-0.23-1.417-0.507-2.108-0.829
		s-1.307-0.742-1.848-1.261c-0.54-0.519-0.975-1.166-1.305-1.944c-0.328-0.778-0.492-1.736-0.492-2.876
		c0-0.909,0.182-1.797,0.545-2.659c0.362-0.864,0.892-1.63,1.589-2.298c0.697-0.667,1.552-1.203,2.565-1.607
		c1.013-0.403,2.171-0.604,3.473-0.604c1.474,0,2.833,0.23,4.076,0.691c1.243,0.46,2.303,1.106,3.178,1.935L249.96,115.441z"/>
	<path fill="#FFFFFF" d="M270.861,110.899v3.697h-11.073v6.927h8.724v3.576h-8.724v7.065h11.073v3.714h-15.754v-24.978
		C255.107,110.899,270.861,110.899,270.861,110.899z"/>
</g>
<g>
	<g>
		<path fill="#FFFFFF" d="M84.316,43.546l4.099,7.782h39.074c-0.625-2.496-0.994-5.092-0.994-7.782H84.316z"/>
		<path fill="#FFFFFF" d="M139.659,69.344H97.915l2.159,4.099h44.853v3.274H101.8l2.159,4.095h40.968v3.279h-39.241l3.457,6.553
			h49.295V75.487C151.41,75.487,144.932,73.19,139.659,69.344z"/>
		<path fill="#FFFFFF" d="M90.146,54.603l2.159,4.094h38.011c-0.706-1.307-1.292-2.684-1.813-4.094H90.146z"/>
		<path fill="#FFFFFF" d="M94.031,61.975l2.159,4.095h39.606c-1.255-1.262-2.388-2.639-3.418-4.095H94.031z"/>
		<path fill="#FFFFFF" d="M228.46,51.328l4.102-7.782h-42.179c0,2.69-0.368,5.286-0.994,7.782H228.46z"/>
		<path fill="#FFFFFF" d="M220.69,66.069l2.159-4.095h-38.346c-1.031,1.456-2.162,2.833-3.417,4.095H220.69z"/>
		<path fill="#FFFFFF" d="M224.575,58.696l2.159-4.094h-38.356c-0.521,1.409-1.107,2.786-1.813,4.094H224.575z"/>
		<path fill="#FFFFFF" d="M158.437,90.643h49.3l3.453-6.553h-39.237v-3.279h40.963l2.158-4.095h-43.121v-3.274h44.849l2.162-4.099
			H177.22c-5.275,3.846-11.753,6.143-18.784,6.143L158.437,90.643L158.437,90.643z"/>
	</g>
	<g>
		<g>
			<g>
				<path fill="#FFFFFF" d="M131.488,43.546c0,14.886,12.065,26.953,26.95,26.953V16.591
					C143.552,16.591,131.488,28.66,131.488,43.546z"/>
			</g>
			<g>
				<path fill="#FFFFFF" d="M158.437,16.591v53.908c14.886,0,26.954-12.069,26.954-26.953S173.323,16.591,158.437,16.591z"/>
			</g>
		</g>
	</g>
</g>
</svg>
