<?xml version="1.0" encoding="utf-8"?>
<!-- Generator: Adobe Illustrator 17.0.0, SVG Export Plug-In . SVG Version: 6.00 Build 0)  -->
<!DOCTYPE svg PUBLIC "-//W3C//DTD SVG 1.1//EN" "http://www.w3.org/Graphics/SVG/1.1/DTD/svg11.dtd">
<svg version="1.1" id="Layer_1" xmlns="http://www.w3.org/2000/svg" xmlns:xlink="http://www.w3.org/1999/xlink" x="0px" y="0px"
	 width="320px" height="150px" viewBox="0 0 320 150" enable-background="new 0 0 320 150" xml:space="preserve">
<g>
	<path fill="#FFFFFF" d="M74.088,124.968c0.163,0.391,0.325,0.784,0.483,1.179c0.158-0.407,0.323-0.808,0.492-1.205
		c0.169-0.395,0.35-0.774,0.542-1.137l7.259-13.586c0.09-0.17,0.183-0.306,0.28-0.407s0.203-0.174,0.323-0.22
		c0.118-0.045,0.252-0.074,0.399-0.085c0.147-0.011,0.322-0.018,0.525-0.018h3.443v24.526h-4.02v-15.841
		c0-0.294,0.009-0.616,0.026-0.967c0.017-0.35,0.042-0.707,0.076-1.068l-7.412,13.907c-0.169,0.317-0.39,0.562-0.662,0.738
		c-0.271,0.175-0.588,0.263-0.949,0.263h-0.628c-0.362,0-0.679-0.087-0.949-0.263c-0.272-0.175-0.492-0.421-0.662-0.738
		l-7.514-13.96c0.045,0.373,0.076,0.739,0.093,1.095c0.017,0.357,0.025,0.687,0.025,0.992v15.841h-4.02v-24.525h3.443
		c0.203,0,0.379,0.007,0.526,0.018c0.147,0.011,0.28,0.04,0.399,0.085c0.118,0.045,0.229,0.118,0.331,0.22
		c0.101,0.101,0.197,0.238,0.289,0.407l7.328,13.62C73.746,124.203,73.924,124.578,74.088,124.968z"/>
	<rect x="92.788" y="129.368" fill="#FFFFFF" width="15.469" height="4.648"/>
	<rect x="92.788" y="109.491" fill="#FFFFFF" width="15.469" height="4.632"/>
	<rect x="92.788" y="119.416" fill="#FFFFFF" width="15.469" height="4.632"/>
	<rect x="242.391" y="129.368" fill="#FFFFFF" width="15.469" height="4.648"/>
	<rect x="242.391" y="109.491" fill="#FFFFFF" width="15.469" height="4.632"/>
	<rect x="242.391" y="119.416" fill="#FFFFFF" width="15.469" height="4.632"/>
	<path fill="#FFFFFF" d="M115.107,109.517c0.135,0.018,0.258,0.052,0.365,0.102c0.107,0.051,0.213,0.123,0.314,0.22
		c0.101,0.096,0.215,0.225,0.339,0.382l12.874,16.401c-0.045-0.395-0.076-0.783-0.093-1.162s-0.025-0.732-0.025-1.061v-14.909h4.02
		v24.526h-2.358c-0.362,0-0.662-0.056-0.899-0.17c-0.238-0.112-0.469-0.316-0.695-0.61l-12.823-16.333
		c0.034,0.362,0.059,0.721,0.077,1.077c0.017,0.357,0.025,0.682,0.025,0.975v15.062h-4.02v-24.526h2.392
		C114.803,109.491,114.972,109.5,115.107,109.517z"/>
	<path fill="#FFFFFF" d="M150.997,113.952c-0.124,0.249-0.269,0.424-0.432,0.525c-0.164,0.101-0.36,0.153-0.585,0.153
		c-0.227,0-0.481-0.088-0.763-0.264c-0.284-0.174-0.616-0.37-1.001-0.584c-0.384-0.216-0.834-0.411-1.348-0.585
		c-0.514-0.175-1.123-0.263-1.823-0.263c-0.634,0-1.184,0.076-1.654,0.229c-0.469,0.152-0.865,0.365-1.187,0.637
		c-0.323,0.272-0.562,0.596-0.721,0.975s-0.238,0.795-0.238,1.247c0,0.576,0.161,1.058,0.483,1.442
		c0.322,0.384,0.749,0.713,1.28,0.984c0.531,0.271,1.137,0.514,1.814,0.729c0.679,0.216,1.371,0.444,2.078,0.687
		c0.707,0.243,1.399,0.525,2.078,0.848c0.679,0.323,1.284,0.73,1.814,1.221c0.531,0.491,0.958,1.095,1.281,1.806
		c0.323,0.713,0.483,1.577,0.483,2.595c0,1.109-0.189,2.145-0.568,3.111c-0.379,0.967-0.932,1.809-1.662,2.528
		c-0.73,0.719-1.62,1.283-2.671,1.696c-1.052,0.413-2.255,0.619-3.613,0.619c-0.78,0-1.55-0.076-2.307-0.23
		c-0.758-0.152-1.485-0.37-2.18-0.653c-0.695-0.283-1.345-0.621-1.95-1.018c-0.605-0.395-1.145-0.836-1.62-1.323l1.323-2.187
		c0.124-0.158,0.274-0.292,0.449-0.399c0.175-0.107,0.371-0.161,0.585-0.161c0.283,0,0.588,0.116,0.916,0.348
		c0.328,0.232,0.715,0.489,1.162,0.772c0.447,0.283,0.972,0.54,1.578,0.772c0.605,0.232,1.332,0.348,2.18,0.348
		c1.3,0,2.307-0.308,3.019-0.925c0.713-0.616,1.069-1.501,1.069-2.653c0-0.645-0.161-1.171-0.483-1.578
		c-0.323-0.407-0.749-0.749-1.281-1.025c-0.531-0.277-1.137-0.511-1.814-0.705c-0.679-0.192-1.368-0.401-2.069-0.628
		c-0.701-0.227-1.39-0.497-2.069-0.814c-0.679-0.317-1.284-0.73-1.814-1.238c-0.531-0.509-0.958-1.145-1.281-1.909
		c-0.322-0.764-0.483-1.705-0.483-2.825c0-0.893,0.177-1.763,0.534-2.611c0.356-0.848,0.876-1.6,1.561-2.256
		c0.684-0.656,1.524-1.182,2.519-1.578c0.994-0.395,2.131-0.593,3.409-0.593c1.447,0,2.782,0.227,4.003,0.678
		c1.221,0.453,2.261,1.086,3.121,1.9L150.997,113.952z"/>
	<path fill="#FFFFFF" d="M160.326,109.491h3.833c0.396,0,0.727,0.094,0.992,0.281s0.444,0.438,0.534,0.754l4.172,14.672
		c0.101,0.362,0.195,0.754,0.28,1.178c0.085,0.424,0.166,0.873,0.247,1.348c0.09-0.475,0.188-0.924,0.297-1.348
		c0.107-0.424,0.224-0.816,0.348-1.178l4.817-14.672c0.09-0.26,0.269-0.497,0.534-0.713c0.265-0.215,0.59-0.323,0.975-0.323h1.339
		c0.396,0,0.725,0.094,0.984,0.281c0.261,0.186,0.442,0.438,0.543,0.754l4.782,14.672c0.249,0.724,0.464,1.526,0.645,2.409
		c0.079-0.441,0.161-0.865,0.247-1.272c0.085-0.407,0.172-0.786,0.263-1.137l4.172-14.672c0.079-0.282,0.255-0.525,0.526-0.729
		c0.271-0.203,0.598-0.306,0.982-0.306h3.579l-7.615,24.526h-4.122l-5.359-16.758c-0.068-0.215-0.139-0.446-0.213-0.695
		c-0.074-0.25-0.144-0.514-0.213-0.797c-0.068,0.283-0.139,0.547-0.213,0.797c-0.074,0.249-0.144,0.48-0.213,0.695l-5.411,16.758
		h-4.122L160.326,109.491z"/>
	<path fill="#FFFFFF" d="M217.653,134.017h-3.528c-0.395,0-0.72-0.099-0.975-0.297c-0.254-0.197-0.438-0.444-0.551-0.738
		l-1.832-5.003h-10.159l-1.832,5.003c-0.09,0.261-0.27,0.498-0.534,0.713c-0.266,0.216-0.59,0.323-0.975,0.323h-3.546l9.634-24.526
		h4.664L217.653,134.017z M201.777,124.756h7.819l-2.985-8.158c-0.135-0.361-0.286-0.789-0.449-1.28
		c-0.164-0.492-0.326-1.026-0.483-1.603c-0.158,0.576-0.314,1.114-0.466,1.611c-0.152,0.498-0.303,0.933-0.449,1.306
		L201.777,124.756z"/>
	<path fill="#FFFFFF" d="M224.896,124.434v9.583h-4.563v-24.527h7.48c1.673,0,3.106,0.173,4.3,0.518
		c1.193,0.345,2.171,0.828,2.934,1.449c0.763,0.621,1.323,1.366,1.678,2.23c0.357,0.865,0.534,1.817,0.534,2.858
		c0,0.826-0.121,1.606-0.365,2.341c-0.243,0.736-0.594,1.402-1.052,2.001c-0.458,0.599-1.023,1.126-1.696,1.578
		c-0.674,0.453-1.438,0.814-2.299,1.086c0.577,0.328,1.075,0.797,1.493,1.408l6.14,9.057h-4.105c-0.395,0-0.732-0.079-1.009-0.238
		c-0.278-0.158-0.511-0.384-0.704-0.678l-5.155-7.853c-0.193-0.294-0.405-0.503-0.637-0.628c-0.232-0.124-0.574-0.186-1.026-0.186
		C226.844,124.434,224.896,124.434,224.896,124.434z M224.896,121.161h2.849c0.859,0,1.609-0.107,2.248-0.323
		c0.639-0.215,1.164-0.511,1.577-0.89c0.413-0.379,0.721-0.828,0.924-1.348s0.306-1.091,0.306-1.714c0-1.243-0.411-2.198-1.23-2.866
		c-0.82-0.668-2.073-1.001-3.757-1.001h-2.917L224.896,121.161L224.896,121.161z"/>
</g>
<g>
	<polygon fill="#FFFFFF" points="164.501,17.136 134.998,53.267 153.023,53.267 173.513,28.173 	"/>
	<polygon fill="#FFFFFF" points="164.501,93.485 173.513,82.449 153.023,57.355 134.998,57.355 	"/>
	<g>
		<polygon fill="#FFFFFF" points="135.69,17.136 106.187,53.267 124.212,53.267 144.702,28.173 		"/>
		<polygon fill="#FFFFFF" points="135.677,17.121 135.69,17.136 135.703,17.121 		"/>
		<polygon fill="#FFFFFF" points="153.714,17.136 153.728,17.121 135.703,17.121 135.69,17.136 144.702,28.173 165.193,53.267 
			183.218,53.267 		"/>
	</g>
	<g>
		<polygon fill="#FFFFFF" points="135.677,93.5 135.703,93.5 135.69,93.485 		"/>
		<polygon fill="#FFFFFF" points="135.69,93.485 144.702,82.449 124.212,57.355 106.187,57.355 		"/>
		<polygon fill="#FFFFFF" points="135.703,93.5 153.728,93.5 153.714,93.485 183.218,57.355 165.193,57.355 144.702,82.449 
			135.69,93.485 		"/>
	</g>
	<polygon fill="#FFFFFF" points="182.526,17.136 182.538,17.121 164.514,17.121 164.501,17.136 173.513,28.173 194.004,53.267 
		212.028,53.267 	"/>
	<polygon fill="#FFFFFF" points="164.514,93.5 182.538,93.5 182.526,93.485 212.028,57.355 194.004,57.355 173.513,82.449 
		164.501,93.485 	"/>
</g>
</svg>
