<?xml version="1.0" encoding="utf-8"?>
<!-- Generator: Adobe Illustrator 17.0.0, SVG Export Plug-In . SVG Version: 6.00 Build 0)  -->
<!DOCTYPE svg PUBLIC "-//W3C//DTD SVG 1.1//EN" "http://www.w3.org/Graphics/SVG/1.1/DTD/svg11.dtd">
<svg version="1.1" id="Layer_1" xmlns="http://www.w3.org/2000/svg" xmlns:xlink="http://www.w3.org/1999/xlink" x="0px" y="0px"
	 width="320px" height="150px" viewBox="0 0 320 150" enable-background="new 0 0 320 150" xml:space="preserve">
<g>
	<path fill="#FFFFFF" d="M68.469,122.084c0,1.986-0.331,3.825-0.993,5.517c-0.662,1.692-1.592,3.157-2.791,4.394
		c-1.199,1.237-2.641,2.201-4.327,2.894s-3.553,1.04-5.601,1.04s-3.918-0.347-5.61-1.04c-1.692-0.692-3.141-1.657-4.346-2.894
		s-2.139-2.701-2.8-4.394c-0.662-1.691-0.993-3.53-0.993-5.517c0-1.985,0.331-3.824,0.993-5.517c0.662-1.692,1.595-3.156,2.8-4.393
		s2.654-2.201,4.346-2.895c1.692-0.692,3.562-1.039,5.61-1.039s3.915,0.35,5.601,1.049s3.128,1.664,4.327,2.895
		c1.199,1.229,2.129,2.69,2.791,4.383S68.469,120.099,68.469,122.084z M63.299,122.084c0-1.485-0.197-2.819-0.59-3.999
		c-0.393-1.181-0.958-2.183-1.695-3.007s-1.633-1.454-2.688-1.892s-2.245-0.656-3.568-0.656c-1.324,0-2.517,0.219-3.578,0.656
		s-1.964,1.067-2.707,1.892c-0.743,0.824-1.315,1.826-1.714,3.007c-0.4,1.18-0.599,2.514-0.599,3.999c0,1.486,0.199,2.819,0.599,4
		c0.399,1.18,0.971,2.179,1.714,2.997c0.743,0.818,1.645,1.445,2.707,1.883c1.062,0.437,2.254,0.655,3.578,0.655
		c1.323,0,2.513-0.219,3.568-0.655c1.055-0.438,1.951-1.064,2.688-1.883c0.736-0.818,1.302-1.817,1.695-2.997
		C63.103,124.903,63.299,123.57,63.299,122.084z"/>
	<path fill="#FFFFFF" d="M77.648,126.093v9.535h-5.039v-27.087h8.823c1.811,0,3.378,0.212,4.702,0.637
		c1.323,0.425,2.417,1.018,3.278,1.779c0.862,0.762,1.499,1.674,1.911,2.735s0.618,2.223,0.618,3.484
		c0,1.311-0.218,2.513-0.655,3.605c-0.438,1.093-1.093,2.032-1.967,2.819s-1.967,1.398-3.278,1.836
		c-1.312,0.438-2.848,0.655-4.608,0.655h-3.785V126.093z M77.648,122.159h3.784c0.924,0,1.729-0.115,2.417-0.347
		c0.687-0.23,1.255-0.562,1.705-0.992c0.45-0.432,0.787-0.956,1.012-1.574s0.337-1.308,0.337-2.069c0-0.725-0.112-1.38-0.337-1.968
		c-0.225-0.586-0.562-1.086-1.012-1.498s-1.018-0.728-1.705-0.946c-0.687-0.218-1.492-0.328-2.417-0.328h-3.784V122.159z"/>
	<path fill="#FFFFFF" d="M112.94,108.541v4.009h-12.007v7.512h9.46v3.877h-9.46v7.662h12.007v4.027H95.856v-27.087
		C95.856,108.541,112.94,108.541,112.94,108.541z"/>
	<path fill="#FFFFFF" d="M120.508,108.568c0.15,0.02,0.284,0.057,0.403,0.112c0.119,0.057,0.234,0.138,0.347,0.244
		s0.237,0.246,0.375,0.421l14.218,18.115c-0.05-0.438-0.084-0.865-0.103-1.283c-0.019-0.419-0.028-0.809-0.028-1.171V108.54h4.44
		v27.087h-2.604c-0.4,0-0.73-0.063-0.993-0.188s-0.519-0.35-0.768-0.674l-14.162-18.04c0.038,0.4,0.066,0.796,0.084,1.189
		s0.028,0.753,0.028,1.077v16.635h-4.44v-27.087h2.642C120.171,108.541,120.359,108.55,120.508,108.568z"/>
	<path fill="#FFFFFF" d="M171.479,129.24c0.274,0,0.512,0.106,0.712,0.318l1.985,2.154c-1.1,1.361-2.451,2.404-4.056,3.128
		c-1.604,0.725-3.531,1.087-5.779,1.087c-2.011,0-3.818-0.344-5.423-1.03c-1.605-0.687-2.976-1.643-4.112-2.866
		c-1.137-1.224-2.007-2.685-2.613-4.384c-0.606-1.698-0.908-3.553-0.908-5.563c0-2.035,0.337-3.899,1.011-5.592
		c0.674-1.691,1.624-3.149,2.848-4.374c1.224-1.224,2.688-2.176,4.393-2.856s3.587-1.021,5.647-1.021
		c2.011,0,3.769,0.321,5.273,0.965c1.505,0.643,2.794,1.495,3.868,2.557l-1.686,2.342c-0.101,0.149-0.229,0.28-0.384,0.394
		c-0.156,0.112-0.372,0.168-0.646,0.168c-0.287,0-0.581-0.112-0.881-0.337s-0.681-0.469-1.143-0.73
		c-0.462-0.263-1.046-0.506-1.751-0.73c-0.706-0.226-1.602-0.338-2.688-0.338c-1.273,0-2.444,0.223-3.512,0.665
		c-1.068,0.443-1.986,1.077-2.754,1.901s-1.367,1.827-1.798,3.007c-0.431,1.181-0.646,2.508-0.646,3.98
		c0,1.524,0.215,2.879,0.646,4.065c0.431,1.187,1.015,2.186,1.751,2.997s1.605,1.433,2.604,1.864
		c0.999,0.431,2.073,0.646,3.222,0.646c0.688,0,1.309-0.037,1.864-0.112c0.556-0.074,1.067-0.193,1.536-0.355
		c0.468-0.162,0.911-0.372,1.33-0.628c0.418-0.256,0.833-0.571,1.245-0.945c0.125-0.113,0.256-0.203,0.394-0.272
		C171.167,129.274,171.316,129.24,171.479,129.24z"/>
	<path fill="#FFFFFF" d="M183.187,125.044v10.584h-5.039v-27.087h8.262c1.848,0,3.431,0.19,4.748,0.571s2.398,0.915,3.241,1.602
		s1.461,1.508,1.854,2.463s0.59,2.008,0.59,3.156c0,0.912-0.135,1.773-0.402,2.586c-0.27,0.812-0.656,1.548-1.162,2.21
		s-1.13,1.243-1.873,1.742c-0.743,0.5-1.589,0.899-2.538,1.199c0.637,0.362,1.187,0.88,1.648,1.555l6.781,10.003h-4.533
		c-0.438,0-0.809-0.087-1.115-0.263c-0.306-0.174-0.564-0.424-0.777-0.749l-5.694-8.673c-0.213-0.325-0.446-0.556-0.702-0.693
		c-0.257-0.137-0.634-0.206-1.134-0.206L183.187,125.044L183.187,125.044z M183.187,121.429h3.147c0.949,0,1.776-0.118,2.481-0.356
		c0.706-0.236,1.286-0.564,1.742-0.983c0.456-0.418,0.797-0.914,1.021-1.489c0.225-0.574,0.337-1.205,0.337-1.892
		c0-1.374-0.453-2.429-1.358-3.166c-0.905-0.736-2.288-1.105-4.148-1.105h-3.223L183.187,121.429L183.187,121.429z"/>
	<path fill="#FFFFFF" d="M226.327,135.628h-3.896c-0.438,0-0.796-0.109-1.077-0.328c-0.28-0.218-0.483-0.489-0.608-0.814
		l-2.023-5.526h-11.221l-2.023,5.526c-0.1,0.287-0.297,0.55-0.59,0.787s-0.652,0.355-1.077,0.355h-3.915l10.641-27.087h5.151
		L226.327,135.628z M208.794,125.4h8.636l-3.297-9.011c-0.15-0.399-0.316-0.871-0.497-1.414c-0.181-0.544-0.359-1.134-0.533-1.771
		c-0.176,0.637-0.347,1.23-0.516,1.779c-0.169,0.55-0.334,1.03-0.496,1.442L208.794,125.4z"/>
	<path fill="#FFFFFF" d="M246.203,108.541v4.009h-12.008v8.018h10.135v4.027h-10.135v11.033h-5.076v-27.087
		C229.119,108.541,246.203,108.541,246.203,108.541z"/>
	<path fill="#FFFFFF" d="M269.243,108.541v4.14h-8.148v22.947h-5.039v-22.947h-8.187v-4.14
		C247.869,108.541,269.243,108.541,269.243,108.541z"/>
</g>
<g>
	<polygon fill="#FFFFFF" points="171.448,60.949 176.553,60.054 178.089,59.784 178.089,42.264 141.077,35.772 139.545,35.502 
		138.009,35.233 132.905,34.34 131.377,34.071 129.842,33.801 111.703,30.62 111.703,94.134 178.089,82.49 178.089,71.191 
		176.553,71.462 171.448,72.357 169.915,72.627 169.915,75.626 119.87,84.403 119.87,40.347 129.842,42.097 131.377,42.367 
		132.905,42.634 138.009,43.529 139.545,43.799 141.077,44.068 169.915,49.124 169.915,61.217 	"/>
	<polygon fill="#FFFFFF" points="131.377,14.32 131.377,32.514 132.905,32.78 138.009,33.676 139.545,33.945 139.545,24.048 
		189.589,32.824 189.589,59.326 179.619,61.076 178.089,61.343 176.553,61.612 171.448,62.507 169.915,62.777 168.379,63.047 
		139.545,68.102 139.545,45.348 138.009,45.078 132.905,44.183 131.377,43.916 131.377,77.834 168.379,71.343 169.915,71.074 
		171.448,70.806 176.553,69.91 178.089,69.641 179.616,69.373 197.763,66.19 197.763,25.965 	"/>
</g>
</svg>
