<?xml version="1.0" encoding="utf-8"?>
<!-- Generator: Adobe Illustrator 17.0.0, SVG Export Plug-In . SVG Version: 6.00 Build 0)  -->
<!DOCTYPE svg PUBLIC "-//W3C//DTD SVG 1.1//EN" "http://www.w3.org/Graphics/SVG/1.1/DTD/svg11.dtd">
<svg version="1.1" id="Layer_1" xmlns="http://www.w3.org/2000/svg" xmlns:xlink="http://www.w3.org/1999/xlink" x="0px" y="0px"
	 width="320px" height="150px" viewBox="0 0 320 150" enable-background="new 0 0 320 150" xml:space="preserve">
<g>
	<path fill="#FFFFFF" d="M177.315,42.245c0.094,0.257,0.192,0.502,0.192,0.502l-0.323,0.108L177.315,42.245z"/>
	<polygon fill="#FFFFFF" points="180.938,40.149 181.006,40.338 180.74,40.407 	"/>
	<path fill="#FFFFFF" d="M177.172,42.86c-1.204,0.379-2.448,0.649-3.551,1.293l0.371,0.881c-0.562,0.407-1.318,0.386-1.979,0.59
		c0.089,0.189,0.185,0.378-0.146,0.468c-0.844,0.355-1.479,0.3-1.856,0.06C173.411,44.494,173.594,40.764,177.172,42.86z"/>
	<path fill="#FFFFFF" d="M178.859,39.428l0.589,1.649c-0.67,0.47-1.323,0.966-2.119,1.102
		C177.587,41.203,178.028,40.44,178.859,39.428z"/>
	<path fill="#FFFFFF" d="M182.738,48.39c0.207-0.011,0.346-0.053-0.032-0.349L182.738,48.39c-0.193,0.013-0.482,0.014-0.618,0.176
		c0.279-1.207,0.323-2.678,0.245-4.103l0.995-0.778c0.61,3.58,0.6,7.395-1.618,9.866C182.031,51.652,182.493,50.32,182.738,48.39z"
		/>
	<path fill="#FFFFFF" d="M185.331,42.897l-0.047-0.399C185.635,42.777,185.534,42.843,185.331,42.897z"/>
	<path fill="#FFFFFF" d="M145.332,65.205c-1.073-1.448-1.3-3.352-1.179-5.085c0.992,2.856,3.083,5.336,4.766,7.585
		C147.56,67.142,146.614,65.917,145.332,65.205z"/>
	<path fill="#FFFFFF" d="M145.658,52.964c1.314,1.031,0.393,2.522,0.284,4.03c-0.65-1.058-0.29-2.543-0.692-3.589L145.658,52.964z"
		/>
	<path fill="#FFFFFF" d="M144.246,55.186c0.315,1.489,0.245,2.9-0.093,4.935C143.811,58.384,143.437,56.846,144.246,55.186z"/>
	<path fill="#FFFFFF" d="M190.109,83.802c2.865-1.387,4.631-2.415,5.285-3.255c0.658-0.073,1.502-0.209,2.608-0.475l-0.338,0.465
		c-2.328,2.423-5.42,4.13-8.13,6.048c-1.264,0.614-2.543,1.036-3.79,1.117C187.4,86.637,188.661,85.094,190.109,83.802z"/>
	<path fill="#FFFFFF" d="M195.394,80.546C189.845,81.089,198.208,77.529,195.394,80.546L195.394,80.546z"/>
	<polygon fill="#FFFFFF" points="170.084,73.678 169.836,73.77 169.016,73.821 	"/>
	<path fill="#FFFFFF" d="M145.972,84.036l5.866,2.239c-4.194-1.078-8.067-3.037-10.62-5.535l1.538,0.336
		C143.359,82.11,144.52,83.4,145.972,84.036z"/>
	<path fill="#FFFFFF" d="M170.084,73.678c3.714-2.084,7.329-4.776,9.588-8.544c3.687-3.45,5.157-8.295,6.15-13.305
		c0.386-1.184,0.439-2.389,1.161-3.237c0.965-0.627,1.655-1.296,2.475-1.951c0.318,1.773-0.471,3.642-0.816,5.137
		c0.135-0.192,0.418-0.153,0.615-0.142c-0.013,2.479-1.212,4.03-1.755,6.432c2.77-2.899,3.389-7.704,2.952-12.21l1.137-0.806
		c2.051,9.733-2.177,20.645-9.825,26.152l-4.469,2.502l1.529-1.956l-1.901,1.798l-1.032,0.698c-2.647,0.995-5.227,1.915-8.139,2.16
		c2.375-0.038,4.78-0.476,7.097-1.455c-3.813,3.124-9.093,5.061-13.962,4.521c-2.557-0.932-5.864-1.111-8.306-2.881l-0.073-0.422
		l-0.613-0.079l-0.722-0.95c-2.436-1.413-4.509-3.351-6.394-5.246l-0.39-0.638c-0.359-0.684-1.419-0.982-1.986-1.396l2.376,2.035
		c1.685,2.65,3.363,5.828,7.116,6.195c0.192,0.213,0.386,0.376,0.54,0.412l0.145,0.09c0.483,2.366,3.338,2.603,5.734,2.612
		c-0.431,0.672,0.861,0.378,0.883,1.065c2.653,1.258,5.727,2.061,8.41,2.525c4.258,0.044,7.653-2.15,11.782-2.651
		c1.372,0.066,2.842-1.576,4.207-2.492l2.231-0.893l-1.527,2.002c0.188,1.247,11.227-9.505,11.547-9.067
		c0.678,0.396-7.892,10.943-16.108,15.12c-1.055,1.877,4.02,3.487,5.444,2.941l0.561-0.052l-3.815,2.694
		c-2.221,1.101-4.617,1.706-7.006,2.256c-3.78,1.109-7.683,1.383-11.548,1.407l3.202,0.426l1.624,0.241
		c4.353,0.282,9.396-1.421,13.727-4.33c2.518-1.208,5.337-2.134,7.606-3.811l0.207-0.093c-2.568,2.521-5.786,4.421-8.761,6.478
		c-6.324,2.223-12.897,3.237-19.387,3.068l3.284,0.464c4.934,1.271,10.767-0.634,16.104-3.531
		c5.999-2.251,11.568-5.538,16.688-9.591c-3.016,3.068-6.444,6.811-10.322,8.715c-15.283,8.177-32.039,7.524-44.75,0.922
		c-1.308-1.427-2.559-2.714-3.963-3.617c-3.234-2.04-6.644-4.924-9.343-7.468c0.894-0.073-0.407-1.389-0.165-1.639
		c-1.695-3.498-4.542-6.358-6.587-10.076c-0.311-0.509-0.61-0.338-1.184-0.732c0.22-6.481-2.225-12.822-2.219-19.939l0.295-5.356
		c-0.227,1.727-0.267,3.545-0.295,5.356c-0.414,4.003-0.251,8.041,0.068,12.179c-1.739-9.919-0.262-19.407,3.78-27.8
		c4.012-7.996,11.113-13.412,18.605-15.688c3.058-0.832,5.872-2.136,8.857-2.991l-0.92-0.518c3.811-1.038,7.687-1.509,11.682-0.648
		l1.075,0.173c8.001,2.151,14.119,5.506,19.971,11.013c1.296,1.503,2.636,2.962,3.592,4.68c0.491,1.403-2.451,0.625-1.509,2.746
		l-0.471-0.103c-0.45-1.73-0.982-3.312-1.921-3.148c-1.4,0.425,0.061,3.322-0.384,5.744l-0.555,0.605c0,0,0.134,0.213,0.295,0.47
		l-0.145,0.284c-0.452,0.181-0.829,0.494-1.178,0.83l-1.015-1.601c-0.624,1.127-0.894,1.953-0.912,2.98l-0.037,0.012l0.037,0.055
		l0.017,0.636l-0.01,0.008c-4.376-1.669-3.331,1.985-6.744,4.332c-0.193-0.137-0.168-0.436-0.278-0.7
		c-0.304,0.158-0.914,0.473-0.914,0.473c-1.547-1.132-3.238-1.225-5.288-0.722c-0.439,0.07-1.232,0.953-1.582,0.848
		c-0.758-0.602-1.668-0.655-2.371-1.386c-1.455-1.722-3.891-2.373-6.291-1.88l-0.064-0.221c-0.62,0.063-1.227,0.194-1.691,0.6
		c-0.413,0.403-1.651-0.506-2.026,0.129c-3.405,2.937-5.606,7.114-5.558,12.468l-1.006,1.781l-0.62-0.938
		c-4.526,5.58,1.817,12.488,5.589,16.455c4.352,5.123,13.263,6.524,20.622,3.068c4.035-0.722,8.414-2.459,11.917-5.697
		C178.217,70.739,174.22,72.46,170.084,73.678z M172.924,33.898l-0.26,0.066l0.303,1.065
		C173.106,34.574,173.129,34.122,172.924,33.898z M172.281,36.244l0.178-0.201c-1.198-2.208-3.185-4.523-5.337-4.754
		C169.182,32.754,170.789,34.907,172.281,36.244z M158.983,36.479l0.013-0.155l-0.037,0.108L158.983,36.479z M134.96,51.459
		c2.322-2.124,2.175-5.423,4.299-7.598c0.399-0.782,1.664-1.206,2.229-1.808c2.819-2.813,6.059-4.502,9.274-5.345
		c1.195-0.537,3.036-0.065,4.213,0.059c0.454,0.203,0.832,0.201,1.203,0.125l0.012-0.282l-1.501-0.164
		c-0.438-0.148-1.149-0.961-1.358-0.879c-1.015-0.265-2.236-0.129-3.27,0.377c-1.124-0.046-1.879,0.965-2.818,1.657
		c-0.163,0.162-0.817-0.171-1.059-0.417c-0.892,1.495-2.81,1.254-3.766,2.944l-0.088-1.022c-1.043,0.641-1.918,1.131-2.837,2.353
		c-0.546,1.032-2.208,1.427-2.335,2.404c-1.547,2.9-1.77,6.136-2.982,9.057C134.798,52.487,134.681,51.821,134.96,51.459z
		 M123.243,48.256c0.046-7.367,4.084-15.391,8.551-15.096c-2.636-4.364-10.112,5.468-10.421,10.218
		c-0.68,5.347-1.048,11.551-0.707,17.692C125.052,61.636,122.74,55.556,123.243,48.256z M146.668,92.708
		c2.972,0.712,5.395,1.895,8.135,2.434C151.952,94.815,149.293,93.683,146.668,92.708z M135.852,71.912
		c1.305,3.171,2.903,5.972,5.367,8.828c4.09,4.623,11.087,7.301,18.085,7.638c0.616,0.161,1.242,0.381,1.851,0.422
		c1.331,0.086,2.484-0.141,3.546-0.497l0.507-0.026l-0.303-0.04c1.58-0.615,3.052-1.209,4.766-2.179l0.621,0.139l-0.322-0.979
		c-5.133-0.701-10.528,1.508-15.757,0.001c-6.353-2.223-12.959-5.312-16.054-11.119C137.568,73.388,136.514,72.543,135.852,71.912z"
		/>
	<path fill="#FFFFFF" d="M176.633,74.302c1.777-0.8,3.385-1.979,5.13-3.098c1.433-0.791,2.561-1.918,3.955-2.908
		c6.02-5.41,8.026-15.417,7.277-24.021c0.957-0.413,1.967-0.63,3.073-0.458c2.777,10.365-1.811,20.95-7.538,29.147l-0.227,0.129
		c-4.033,2.308-9.027,7.103-14.378,8.028c-5.466,0.207-10.181,0.691-14.728-0.855C165.425,79.869,171.855,78.652,176.633,74.302z"/>
	<path fill="#FFFFFF" d="M145.944,56.995c0.358,0.698,0.306,1.759,0.883,2.401c0.982,2.226,2.077,4.727,4.034,6.751
		c-1.767-0.78-3.148-2.183-4.652-3.323C145.091,61.151,145.376,58.903,145.944,56.995z"/>
	<path fill="#FFFFFF" d="M152.493,67.964c-0.657-0.433-1.112-1.282-1.633-1.818c2.427,1.616,5.278,2.234,8.251,2.8
		c5.019,1.12,10.842,0.141,16.278-2.987c0.681-0.303,1.238-0.738,1.693-1.255c-6.406,9.614-22.225,12.046-27.831,3.418l-0.331-0.417
		c3.294,2.251,7.252,3.072,11.325,3.475C157.313,70.705,154.67,69.565,152.493,67.964z"/>
	<polygon fill="#FFFFFF" points="174.848,74.95 175.891,74.246 177.293,73.706 176.633,74.302 	"/>
	<path fill="#FFFFFF" d="M164.905,88.237l-0.205,0.066c-1.8,0.01-3.578,0.378-5.396,0.076c-2.505-0.774-5.052-1.128-7.466-2.104
		C156.346,87.363,161.007,87.823,164.905,88.237z"/>
	<path fill="#FFFFFF" d="M147.521,95.838c-0.667-0.156-1.995-0.487-2.654-0.662l-1.011-0.908l1.861,0.416L147.521,95.838z"/>
	<path fill="#FFFFFF" d="M121.357,69.485c3.864,10.085,11.421,18.573,21.243,23.531l1.256,1.251
		c-7.085-2.187-13.597-6.637-16.836-12.688c-0.669-1.181-1.203-3.26-2.032-4.173c-3.518-4.805-5.158-10.367-5.78-15.684
		c0.63,2.437,1.102,5.05,2.058,7.553L121.357,69.485z"/>
</g>
<g>
	<path fill="#FFFFFF" d="M56.822,130.598H50.27v6.816h-4.368v-23.162c3.64,0,7.28-0.031,10.919-0.031
		C68.139,114.219,68.171,130.598,56.822,130.598z M50.271,126.594h6.552c5.591,0,5.559-8.206,0-8.206h-6.552V126.594z"/>
	<path fill="#FFFFFF" d="M84.716,133.046h-12.11l-1.985,4.368H65.89l10.39-23.162h4.765l10.39,23.162h-4.765L84.716,133.046z
		 M78.661,119.115l-4.302,9.862h8.603L78.661,119.115z"/>
	<path fill="#FFFFFF" d="M93.088,137.414v-23.162h4.335v23.162H93.088z"/>
	<path fill="#FFFFFF" d="M116.747,114.219h4.368v23.195h-2.713v0.033l-12.177-15.651v15.618h-4.368v-23.162h3.54l11.35,14.361
		V114.219z"/>
	<path fill="#FFFFFF" d="M131.108,118.223h-7.346v-3.972c6.684,0,12.343,0,19.059,0v3.972h-7.346v19.19h-4.368
		C131.108,137.414,131.108,118.223,131.108,118.223z"/>
	<path fill="#FFFFFF" d="M147.751,125.27h13.334v1.687h-13.334v10.49h-1.787V114.25h15.584v1.787H147.75L147.751,125.27
		L147.751,125.27z"/>
	<path fill="#FFFFFF" d="M183.917,137.414l-2.546-5.691h-13.831l-2.515,5.691h-1.919l10.389-23.162h1.954l10.389,23.162H183.917z
		 M180.674,130.068l-6.221-14.096l-6.221,14.096H180.674z"/>
	<path fill="#FFFFFF" d="M203.472,118.718c-1.687-2.713-4.4-3.109-7.015-3.144c-2.713,0-7.015,0.993-7.015,4.699
		c0,2.945,3.177,3.64,7.081,4.368c4.468,0.86,9.1,1.654,9.1,6.65c-0.033,5.227-5.294,6.485-9.165,6.485
		c-3.607,0-7.709-1.49-9.496-5.03l1.588-0.794c1.422,2.812,5.062,4.202,7.908,4.202c2.847,0,7.378-0.794,7.378-4.897
		c0.033-3.475-3.806-4.234-7.61-4.963c-4.234-0.828-8.569-1.687-8.569-5.955c-0.1-4.897,4.996-6.419,8.801-6.419
		c3.31,0,6.187,0.529,8.471,3.937L203.472,118.718z"/>
	<path fill="#FFFFFF" d="M225.972,137.414v-10.522h-14.758v10.522h-1.786v-23.162h1.786v11.018h14.758v-11.018h1.786v23.162H225.972
		z"/>
	<path fill="#FFFFFF" d="M232.889,137.414v-23.162h1.754v23.162H232.889z"/>
	<path fill="#FFFFFF" d="M262.8,125.866c-0.031,6.087-3.903,11.945-11.679,11.945c-7.777,0-11.68-5.89-11.68-12.011
		c0-6.221,3.871-11.912,11.68-11.912C258.929,113.887,262.833,119.612,262.8,125.866z M241.193,125.833
		c0.033,5.227,3.343,10.324,9.928,10.324c6.617,0,9.959-5.096,9.959-10.324c0-5.361-3.31-10.29-9.959-10.29
		C244.47,115.542,241.161,120.372,241.193,125.833z"/>
	<path fill="#FFFFFF" d="M267.83,114.252l15.586,19.159v-19.159h1.753v23.162h-0.694l-15.619-19.125v19.125h-1.786v-23.162
		C267.071,114.252,267.83,114.252,267.83,114.252z"/>
</g>
</svg>
