<?xml version="1.0" encoding="utf-8"?>
<!-- Generator: Adobe Illustrator 17.0.0, SVG Export Plug-In . SVG Version: 6.00 Build 0)  -->
<!DOCTYPE svg PUBLIC "-//W3C//DTD SVG 1.1//EN" "http://www.w3.org/Graphics/SVG/1.1/DTD/svg11.dtd">
<svg version="1.1" id="Layer_1" xmlns="http://www.w3.org/2000/svg" xmlns:xlink="http://www.w3.org/1999/xlink" x="0px" y="0px"
	 width="320px" height="150px" viewBox="0 0 320 150" enable-background="new 0 0 320 150" xml:space="preserve">
<g>
	<g enable-background="new    ">
		<path fill="#FFFFFF" d="M53.846,126.546v8.001h-4.229v-22.731h7.404c1.52,0,2.835,0.179,3.946,0.536
			c1.111,0.356,2.028,0.853,2.751,1.493c0.723,0.639,1.258,1.404,1.603,2.294c0.346,0.892,0.519,1.865,0.519,2.924
			c0,1.101-0.183,2.11-0.55,3.027s-0.917,1.706-1.651,2.366c-0.734,0.66-1.651,1.174-2.751,1.541c-1.1,0.368-2.389,0.55-3.867,0.55
			h-3.175V126.546z M53.846,123.244h3.175c0.776,0,1.451-0.096,2.028-0.29c0.576-0.194,1.053-0.472,1.431-0.833
			c0.377-0.362,0.66-0.802,0.849-1.32c0.189-0.519,0.283-1.098,0.283-1.738c0-0.607-0.094-1.157-0.283-1.65
			c-0.189-0.494-0.472-0.912-0.849-1.258c-0.377-0.346-0.854-0.611-1.431-0.794c-0.576-0.183-1.252-0.276-2.028-0.276h-3.175
			V123.244z"/>
		<path fill="#FFFFFF" d="M90.93,123.182c0,1.666-0.278,3.21-0.833,4.629c-0.555,1.42-1.336,2.648-2.342,3.687
			c-1.006,1.039-2.216,1.848-3.631,2.428c-1.415,0.583-2.982,0.873-4.7,0.873c-1.719,0-3.289-0.29-4.709-0.873
			c-1.42-0.582-2.636-1.391-3.647-2.428c-1.011-1.038-1.794-2.266-2.351-3.687c-0.555-1.419-0.833-2.963-0.833-4.629
			s0.278-3.21,0.833-4.63c0.555-1.419,1.338-2.648,2.351-3.687c1.011-1.036,2.227-1.848,3.647-2.428
			c1.42-0.581,2.99-0.872,4.709-0.872s3.285,0.292,4.7,0.88c1.415,0.587,2.625,1.396,3.631,2.428
			c1.006,1.032,1.787,2.258,2.342,3.678C90.651,119.972,90.93,121.516,90.93,123.182z M86.59,123.182
			c0-1.247-0.166-2.366-0.496-3.357c-0.33-0.989-0.805-1.831-1.422-2.523c-0.617-0.692-1.371-1.221-2.255-1.588
			c-0.886-0.368-1.884-0.55-2.994-0.55c-1.111,0-2.112,0.183-3.002,0.55c-0.891,0.367-1.648,0.895-2.271,1.588
			c-0.624,0.692-1.104,1.533-1.439,2.523c-0.335,0.99-0.503,2.11-0.503,3.357c0,1.246,0.168,2.365,0.503,3.356
			c0.335,0.99,0.814,1.829,1.439,2.515c0.624,0.685,1.38,1.213,2.271,1.579c0.891,0.368,1.892,0.55,3.002,0.55
			s2.109-0.183,2.994-0.55c0.886-0.367,1.638-0.894,2.255-1.579c0.618-0.686,1.092-1.525,1.422-2.515
			C86.425,125.547,86.59,124.428,86.59,123.182z"/>
		<path fill="#FFFFFF" d="M98.49,131.057h9.102v3.49h-13.33v-22.731h4.229V131.057z"/>
		<path fill="#FFFFFF" d="M117.055,125.713v8.835h-4.229v-8.835l-8.284-13.897h3.726c0.367,0,0.657,0.09,0.873,0.268
			c0.215,0.178,0.395,0.403,0.542,0.676l4.166,7.593c0.241,0.451,0.451,0.878,0.629,1.282s0.341,0.8,0.487,1.186
			c0.136-0.398,0.291-0.799,0.464-1.202c0.173-0.403,0.379-0.825,0.62-1.265l4.134-7.593c0.115-0.231,0.288-0.445,0.519-0.645
			c0.231-0.198,0.524-0.299,0.88-0.299h3.741L117.055,125.713z"/>
		<path fill="#FFFFFF" d="M136.706,131.435c0.954,0,1.785-0.087,2.491-0.26c0.707-0.173,1.38-0.411,2.021-0.716v-4.133h-2.845
			c-0.272,0-0.487-0.075-0.645-0.228c-0.157-0.152-0.236-0.337-0.236-0.558v-2.389h7.561v9.196c-0.576,0.418-1.177,0.783-1.8,1.092
			c-0.624,0.309-1.289,0.564-1.996,0.763c-0.707,0.199-1.465,0.348-2.271,0.449c-0.808,0.1-1.677,0.15-2.61,0.15
			c-1.656,0-3.181-0.288-4.574-0.865s-2.599-1.377-3.616-2.405c-1.017-1.027-1.811-2.253-2.381-3.678
			c-0.571-1.425-0.856-2.982-0.856-4.669c0-1.708,0.278-3.275,0.833-4.7c0.555-1.424,1.344-2.65,2.365-3.678
			c1.022-1.028,2.262-1.824,3.717-2.389c1.457-0.566,3.092-0.849,4.905-0.849c1.855,0,3.46,0.275,4.819,0.825
			c1.357,0.55,2.508,1.266,3.45,2.146l-1.226,1.918c-0.241,0.388-0.561,0.582-0.959,0.582c-0.252,0-0.508-0.084-0.77-0.252
			c-0.335-0.198-0.678-0.398-1.029-0.596c-0.351-0.199-0.739-0.372-1.163-0.519c-0.424-0.148-0.901-0.267-1.431-0.363
			c-0.529-0.094-1.139-0.141-1.831-0.141c-1.121,0-2.136,0.189-3.042,0.566c-0.907,0.377-1.68,0.917-2.318,1.619
			c-0.638,0.702-1.132,1.547-1.478,2.531c-0.346,0.985-0.519,2.086-0.519,3.301c0,1.31,0.183,2.475,0.55,3.497
			c0.367,1.023,0.88,1.884,1.541,2.586c0.66,0.702,1.446,1.24,2.358,1.611C134.631,131.248,135.627,131.435,136.706,131.435z"/>
		<path fill="#FFFFFF" d="M170.802,123.182c0,1.666-0.278,3.21-0.833,4.629c-0.554,1.42-1.336,2.648-2.341,3.687
			c-1.007,1.038-2.217,1.848-3.631,2.428c-1.416,0.583-2.983,0.873-4.7,0.873c-1.719,0-3.289-0.29-4.709-0.873
			c-1.42-0.582-2.636-1.391-3.647-2.428s-1.794-2.266-2.351-3.687c-0.555-1.419-0.833-2.963-0.833-4.629s0.278-3.21,0.833-4.63
			c0.555-1.419,1.338-2.648,2.351-3.687c1.011-1.036,2.227-1.848,3.647-2.428s2.99-0.872,4.709-0.872c1.719,0,3.285,0.292,4.7,0.88
			c1.415,0.587,2.624,1.396,3.631,2.428c1.005,1.032,1.787,2.258,2.341,3.678C170.524,119.972,170.802,121.516,170.802,123.182z
			 M166.463,123.182c0-1.247-0.165-2.366-0.496-3.357c-0.33-0.989-0.805-1.831-1.422-2.523c-0.617-0.692-1.371-1.221-2.255-1.588
			c-0.886-0.368-1.884-0.55-2.994-0.55c-1.111,0-2.112,0.183-3.003,0.55c-0.891,0.367-1.648,0.895-2.271,1.588
			c-0.624,0.692-1.104,1.533-1.439,2.523c-0.335,0.99-0.503,2.11-0.503,3.357c0,1.246,0.168,2.365,0.503,3.356
			c0.335,0.99,0.814,1.829,1.439,2.515c0.624,0.685,1.38,1.213,2.271,1.579c0.891,0.368,1.892,0.55,3.003,0.55
			c1.111,0,2.11-0.183,2.994-0.55c0.886-0.367,1.638-0.894,2.255-1.579c0.618-0.686,1.092-1.525,1.422-2.515
			C166.297,125.547,166.463,124.428,166.463,123.182z"/>
		<path fill="#FFFFFF" d="M176.822,111.839c0.126,0.017,0.239,0.048,0.338,0.095c0.099,0.047,0.197,0.114,0.29,0.203
			c0.093,0.089,0.198,0.207,0.313,0.354l11.932,15.201c-0.042-0.367-0.07-0.725-0.087-1.076c-0.016-0.351-0.022-0.678-0.022-0.983
			v-13.819h3.726v22.731h-2.186c-0.334,0-0.612-0.052-0.833-0.157c-0.219-0.105-0.434-0.292-0.643-0.566l-11.885-15.137
			c0.033,0.335,0.056,0.669,0.071,0.998c0.016,0.33,0.023,0.632,0.023,0.903v13.959h-3.727v-22.731h2.217
			C176.539,111.815,176.697,111.824,176.822,111.839z"/>
		<path fill="#FFFFFF" d="M203.971,134.546v-22.731h7.843c1.488,0,2.759,0.143,3.813,0.424c1.053,0.284,1.918,0.686,2.595,1.21
			c0.676,0.524,1.171,1.157,1.485,1.901c0.314,0.745,0.472,1.584,0.472,2.515c0,0.534-0.079,1.045-0.236,1.533
			c-0.157,0.487-0.401,0.942-0.731,1.368s-0.749,0.809-1.258,1.156c-0.507,0.346-1.114,0.639-1.815,0.88
			c3.123,0.702,4.686,2.389,4.686,5.062c0,0.964-0.184,1.855-0.55,2.672s-0.901,1.523-1.603,2.115s-1.567,1.056-2.594,1.391
			c-1.027,0.335-2.202,0.503-3.521,0.503L203.971,134.546L203.971,134.546z M208.2,121.657h3.38c1.435,0,2.526-0.262,3.269-0.786
			c0.745-0.524,1.116-1.357,1.116-2.499c0-1.184-0.334-2.029-1.006-2.531c-0.671-0.503-1.72-0.756-3.144-0.756H208.2V121.657z
			 M208.2,124.581v6.664h4.29c0.786,0,1.444-0.094,1.973-0.283c0.53-0.189,0.954-0.44,1.273-0.755
			c0.321-0.315,0.55-0.681,0.692-1.101c0.141-0.418,0.213-0.864,0.213-1.335c0-0.493-0.079-0.936-0.236-1.329
			c-0.157-0.393-0.405-0.728-0.739-1.006c-0.335-0.278-0.765-0.49-1.289-0.636c-0.524-0.146-1.158-0.22-1.901-0.22H208.2V124.581z"
			/>
		<path fill="#FFFFFF" d="M246.257,123.182c0,1.666-0.279,3.21-0.833,4.629c-0.555,1.42-1.336,2.648-2.342,3.687
			s-2.215,1.848-3.631,2.428c-1.416,0.583-2.982,0.873-4.7,0.873c-1.719,0-3.288-0.29-4.708-0.873
			c-1.42-0.582-2.637-1.391-3.647-2.428s-1.794-2.266-2.35-3.687c-0.554-1.419-0.833-2.963-0.833-4.629s0.279-3.21,0.833-4.63
			c0.555-1.419,1.338-2.648,2.35-3.687c1.011-1.036,2.227-1.848,3.647-2.428s2.99-0.872,4.708-0.872c1.72,0,3.285,0.292,4.7,0.88
			c1.416,0.587,2.625,1.396,3.631,2.428s1.787,2.258,2.342,3.678C245.978,119.972,246.257,121.516,246.257,123.182z
			 M241.917,123.182c0-1.247-0.165-2.366-0.496-3.357c-0.329-0.989-0.805-1.831-1.422-2.523c-0.617-0.692-1.37-1.221-2.255-1.588
			c-0.886-0.368-1.883-0.55-2.994-0.55s-2.112,0.183-3.003,0.55c-0.891,0.367-1.647,0.895-2.271,1.588
			c-0.624,0.693-1.104,1.533-1.438,2.523c-0.335,0.99-0.503,2.11-0.503,3.357c0,1.246,0.168,2.365,0.503,3.356
			c0.334,0.99,0.814,1.829,1.438,2.515c0.624,0.685,1.38,1.213,2.271,1.579c0.892,0.368,1.893,0.55,3.003,0.55
			c1.112,0,2.11-0.183,2.994-0.55c0.887-0.367,1.638-0.894,2.255-1.579c0.618-0.686,1.093-1.525,1.422-2.515
			C241.753,125.546,241.917,124.428,241.917,123.182z"/>
		<path fill="#FFFFFF" d="M254.573,122.851l-7.247-11.035h4.213c0.293,0,0.505,0.04,0.636,0.118
			c0.131,0.078,0.249,0.206,0.354,0.385l5.173,8.347c0.051-0.136,0.109-0.269,0.172-0.401c0.064-0.13,0.137-0.264,0.221-0.4
			l4.732-7.467c0.231-0.388,0.529-0.583,0.895-0.583h4.057l-7.325,10.862l7.53,11.869h-4.229c-0.284,0-0.51-0.073-0.683-0.22
			c-0.173-0.147-0.318-0.314-0.433-0.503l-5.265-8.709c-0.042,0.126-0.089,0.243-0.141,0.354c-0.052,0.109-0.106,0.212-0.157,0.306
			l-5.046,8.049c-0.114,0.179-0.256,0.344-0.423,0.496c-0.168,0.153-0.376,0.228-0.629,0.228h-3.961L254.573,122.851z"/>
	</g>
</g>
<g>
	<polygon fill="#FFFFFF" points="132.721,18.557 148.508,18.557 125.07,56.189 148.508,93.822 132.721,93.822 109.283,56.189 	"/>
	<polygon fill="#FFFFFF" points="179.895,18.557 164.107,18.557 187.547,56.189 164.107,93.822 179.895,93.822 203.333,56.189 	"/>
	<polygon fill="#FFFFFF" points="171.2,18.557 186.986,18.557 163.549,56.189 186.986,93.822 171.2,93.822 147.76,56.189 	"/>
	<polygon fill="#FFFFFF" points="163.305,18.557 179.094,18.557 155.654,56.189 179.094,93.822 163.305,93.822 139.868,56.189 	"/>
	<polygon fill="#FFFFFF" points="187.788,18.557 172.002,18.557 195.44,56.189 172.002,93.822 187.788,93.822 211.226,56.189 	"/>
</g>
</svg>
