<?xml version="1.0" encoding="utf-8"?>
<!-- Generator: Adobe Illustrator 17.0.0, SVG Export Plug-In . SVG Version: 6.00 Build 0)  -->
<!DOCTYPE svg PUBLIC "-//W3C//DTD SVG 1.1//EN" "http://www.w3.org/Graphics/SVG/1.1/DTD/svg11.dtd">
<svg version="1.1" id="Layer_1" xmlns="http://www.w3.org/2000/svg" xmlns:xlink="http://www.w3.org/1999/xlink" x="0px" y="0px"
	 width="320px" height="150px" viewBox="0 0 320 150" enable-background="new 0 0 320 150" xml:space="preserve">
<g>
	<polygon fill="#FFFFFF" points="161.821,99.88 129.814,85.873 129.814,57.966 161.821,71.975 	"/>
	<polygon fill="#FFFFFF" points="161.821,67.107 129.814,53.1 129.814,25.193 161.821,39.2 	"/>
	<polygon fill="#FFFFFF" points="166.747,99.88 198.755,85.873 198.755,57.966 166.747,71.975 	"/>
	<g>
		<g>
			<path fill="#FFFFFF" d="M166.747,67.107L198.756,53.1V25.193l-32.008,14.008V67.107z M168.25,40.185l28.998-12.691v24.621
				L168.25,64.806V40.185z"/>
		</g>
	</g>
	<g>
		<polygon fill="#FFFFFF" points="164.267,24.097 165.5,27.898 169.498,27.898 166.264,30.245 167.499,34.046 164.267,31.696 
			161.034,34.046 162.269,30.245 159.036,27.898 163.031,27.898 		"/>
		<polygon fill="#FFFFFF" points="176.34,21.438 177.188,24.046 179.931,24.046 177.712,25.661 178.56,28.269 176.34,26.656 
			174.121,28.269 174.968,25.661 172.748,24.046 175.49,24.046 		"/>
		<polygon fill="#FFFFFF" points="185.499,18.736 186.172,20.799 188.339,20.799 186.584,22.075 187.257,24.138 185.499,22.863 
			183.743,24.138 184.417,22.075 182.66,20.799 184.829,20.799 		"/>
		<polygon fill="#FFFFFF" points="193.518,16.342 193.929,17.602 195.254,17.602 194.184,18.382 194.591,19.644 193.518,18.863 
			192.447,19.644 192.858,18.382 191.783,17.602 193.111,17.602 		"/>
		<polygon fill="#FFFFFF" points="152.227,21.438 151.38,24.046 148.636,24.046 150.855,25.661 150.009,28.269 152.227,26.656 
			154.448,28.269 153.6,25.661 155.82,24.046 153.077,24.046 		"/>
		<polygon fill="#FFFFFF" points="143.068,18.736 142.397,20.799 140.228,20.799 141.983,22.075 141.313,24.138 143.068,22.863 
			144.825,24.138 144.151,22.075 145.907,20.799 143.739,20.799 		"/>
		<polygon fill="#FFFFFF" points="135.047,16.342 134.638,17.602 133.312,17.602 134.386,18.382 133.975,19.644 135.047,18.863 
			136.122,19.644 135.71,18.382 136.784,17.602 135.458,17.602 		"/>
	</g>
</g>
<g>
	<path fill="#FFFFFF" d="M31.193,126.918c0.114,0,0.199,0.028,0.199,0.226c0.056,0.879,0.453,2.097,1.133,3.202
		c0.822,1.303,2.21,1.926,3.57,1.926s3.541-0.906,3.541-3.144c0-2.352-0.454-3.032-4.137-4.42c-0.85-0.312-2.663-1.218-4.108-2.465
		c-0.992-0.878-1.416-2.379-1.416-4.023c0-1.729,0.424-2.889,2.124-4.165c1.275-0.963,2.352-1.36,4.08-1.36
		c2.068,0,3.173,0.339,3.768,0.567c0.283,0.114,0.482,0.057,0.652-0.14l0.368-0.369c0.114-0.114,0.255-0.17,0.425-0.17
		c0.199,0,0.255,0.312,0.283,0.482l0.454,4.844c0,0.114-0.057,0.141-0.141,0.17l-0.623,0.199c-0.141,0.057-0.283,0-0.368-0.199
		c-0.312-0.821-0.793-1.926-1.756-2.946c-0.708-0.793-1.559-1.19-2.833-1.19c-2.125,0-3.003,1.841-3.003,2.578
		c0,1.048,0.028,1.898,0.737,2.607c0.737,0.764,2.352,1.445,3.74,1.841c1.36,0.397,2.465,1.105,3.627,2.153
		c1.105,0.992,1.559,2.239,1.559,4.222c0,3.456-2.465,6.261-6.205,6.261c-2.55,0-3.882-0.424-5.071-1.217
		c-0.34-0.226-0.51-0.312-0.652-0.312c-0.17,0-0.283,0.198-0.453,0.482c-0.17,0.312-0.312,0.339-0.51,0.339
		c-0.312,0-0.425-0.14-0.397-0.453l0.453-5.384c0.029-0.198,0.114-0.198,0.226-0.198L31.193,126.918z"/>
	<path fill="#FFFFFF" d="M53.772,114.422H52.78c-0.907,0-2.607,0.028-3.797,0.454c-0.623,0.454-1.87,2.182-2.578,3.201
		c-0.085,0.141-0.17,0.226-0.283,0.199l-0.623-0.226c-0.114-0.028-0.141-0.17-0.114-0.255c0.312-1.19,1.247-4.93,1.36-5.497
		c0.085-0.369,0.226-0.482,0.425-0.482s0.283,0.113,0.538,0.424c0.312,0.397,0.85,0.653,1.87,0.708
		c1.501,0.085,2.691,0.171,5.638,0.171h1.643c3.089,0,4.307-0.114,5.497-0.171c0.623-0.028,1.729-0.368,2.068-0.708
		c0.283-0.283,0.454-0.424,0.652-0.424c0.198,0,0.283,0.113,0.339,0.454l0.85,5.637c0.029,0.114-0.029,0.226-0.114,0.256
		l-0.595,0.226c-0.114,0.029-0.17-0.056-0.283-0.255c-0.623-1.02-1.729-2.492-2.437-3.173c-0.708-0.424-3.23-0.538-3.882-0.538
		H58.02v7.791c0,0.397,0,8.33,0.029,8.754c0.056,0.708,0.283,1.133,0.963,1.133h1.275c0.255,0,0.283,0.085,0.283,0.284v0.652
		c0,0.141-0.028,0.226-0.283,0.226c-0.283,0-1.19-0.085-4.335-0.085c-3.003,0-4.193,0.085-4.59,0.085
		c-0.226,0-0.255-0.113-0.255-0.339v-0.538c0-0.199,0.029-0.284,0.199-0.284h1.445c0.567,0,0.907-0.339,0.963-0.85
		c0.056-0.595,0.056-9.293,0.056-9.831v-7H53.772z"/>
	<path fill="#FFFFFF" d="M70.061,125.415c-0.226,0.594-1.615,4.476-1.615,5.383c0,0.623,0.255,1.302,1.105,1.302h0.992
		c0.284,0,0.312,0.114,0.312,0.226v0.623c0,0.226-0.028,0.312-0.255,0.312c-0.369,0-1.53-0.085-3.853-0.085
		c-2.068,0-2.691,0.085-3.088,0.085c-0.17,0-0.199-0.17-0.199-0.369v-0.538c0-0.171,0.028-0.256,0.199-0.256h0.737
		c0.68,0,1.36-0.397,1.926-1.246c0.397-0.595,2.408-5.525,3.344-8.018c0.226-0.567,2.522-6.659,2.777-7.423
		c0.085-0.284,0.226-0.653,0.028-0.964c-0.085-0.113-0.199-0.255-0.199-0.368c0-0.085,0.057-0.199,0.283-0.255
		c0.907-0.199,2.748-0.936,3.174-1.416c0.141-0.141,0.226-0.256,0.368-0.256c0.17,0,0.226,0.171,0.312,0.482
		c0.538,1.785,2.748,8.132,3.286,9.945c0.652,2.21,2.493,7.479,2.89,8.244c0.482,0.936,1.218,1.275,1.644,1.275h0.963
		c0.17,0,0.199,0.114,0.199,0.256v0.538c0,0.171-0.029,0.369-0.255,0.369c-0.538,0-1.133-0.085-4.76-0.085
		c-2.352,0-3.344,0.085-3.909,0.085c-0.284,0-0.312-0.17-0.312-0.369v-0.538c0-0.141,0.028-0.256,0.17-0.256h0.793
		c0.765,0,1.02-0.283,0.85-1.02c-0.255-1.02-1.36-4.646-1.7-5.666h-6.206V125.415z M76.011,124.282l-2.125-7.507
		c-0.114-0.424-0.17-0.623-0.312-0.623c-0.17,0-0.255,0.113-0.339,0.369c-0.141,0.368-2.578,7.054-2.805,7.762L76.011,124.282
		L76.011,124.282z"/>
	<path fill="#FFFFFF" d="M89.721,120.287c0-2.096,0-3.909-0.029-4.675c-0.028-0.936-0.397-1.416-0.793-1.416h-1.133
		c-0.141,0-0.17-0.085-0.17-0.198v-0.765c0-0.141,0.029-0.199,0.17-0.199c0.255,0,1.133,0.086,4.221,0.086
		c1.586,0,4.079-0.086,5.241-0.086c2.21,0,3.853,0.794,5.015,1.87c1.02,0.936,1.615,2.04,1.615,3.088
		c0,3.599-2.691,5.214-5.185,5.439v0.199c0.878,0.283,1.332,0.821,1.87,1.501c0.368,0.454,1.926,2.975,2.153,3.315
		c0.17,0.255,1.7,2.409,2.267,3.06c0.339,0.368,1.416,0.594,2.068,0.594c0.199,0,0.226,0.114,0.226,0.226v0.68
		c0,0.17-0.029,0.255-0.226,0.255c-0.226,0-0.963-0.085-3.145-0.085c-0.821,0-1.87,0.057-2.691,0.085
		c-0.85-0.652-2.607-3.938-3.088-4.901c-0.963-1.927-2.125-4.023-3.485-4.023h-0.963v1.445c0,1.671,0.085,4.845,0.141,5.213
		c0.056,0.595,0.283,1.105,0.708,1.105h1.161c0.199,0,0.226,0.085,0.226,0.226v0.68c0,0.198-0.029,0.255-0.454,0.255
		c-0.028,0-0.737-0.085-3.712-0.085c-3.003,0-3.655,0.085-3.966,0.085c-0.226,0-0.226-0.085-0.226-0.284v-0.652
		c0-0.141,0-0.226,0.141-0.226h0.85c0.623,0,1.133-0.198,1.133-0.906c0.056-2.806,0.056-5.469,0.056-8.16L89.721,120.287
		L89.721,120.287z M93.688,123.347c0.538,0.029,0.878,0.029,1.133,0.029c3.74,0,4.618-3.57,4.618-4.902
		c0-1.302-0.454-2.55-1.077-3.173c-1.02-0.906-2.294-1.247-3.145-1.247c-0.482,0-0.85,0.057-1.077,0.256
		c-0.17,0.113-0.255,0.424-0.312,0.764L93.688,123.347z"/>
	<path fill="#FFFFFF" d="M135.871,130.429c0,0.397,0.114,0.68,0.114,0.907c0,0.226-0.17,0.339-0.454,0.453
		c-2.294,1.162-4.703,1.813-8.301,1.813c-2.947,0-6.262-0.935-8.216-3.23c-1.729-1.954-2.607-4.362-2.607-7.79
		c0-2.578,1.218-5.327,3.286-7.112c2.068-1.813,4.618-2.776,8.018-2.776c2.861,0,4.986,0.793,5.921,1.388
		c0.339,0.198,0.538,0.141,0.708-0.085l0.283-0.454c0.141-0.199,0.199-0.284,0.369-0.284c0.312,0,0.397,0.199,0.397,0.51
		l0.425,5.836c0.028,0.339,0,0.482-0.114,0.509l-0.793,0.17c-0.17,0.029-0.255-0.028-0.339-0.283
		c-0.454-1.388-1.361-3.202-2.578-4.307c-1.105-1.048-2.55-1.756-4.477-1.756c-1.53,0-2.946,0.482-4.278,2.125
		c-1.303,1.559-2.267,3.91-2.267,6.46c0,3.343,0.936,6.261,2.465,7.791c1.332,1.332,2.408,1.927,4.335,1.927
		c1.474,0,2.267-0.113,3.202-0.567c0.595-0.284,0.652-1.19,0.652-2.663v-2.04c0-1.02-0.283-1.302-0.991-1.302h-1.19
		c-0.171,0-0.199-0.114-0.199-0.255v-0.708c0-0.114,0.028-0.199,0.199-0.199c0.255,0,1.643,0.085,4.193,0.085
		c2.607,0,3.654-0.085,3.882-0.085c0.227,0,0.255,0.085,0.255,0.226v0.708c0,0.17-0.028,0.226-0.198,0.226h-0.822
		c-0.509,0-0.878,0.198-0.878,1.02v3.741H135.871z"/>
	<path fill="#FFFFFF" d="M145.416,125.415c-0.226,0.594-1.614,4.476-1.614,5.383c0,0.623,0.255,1.302,1.105,1.302h0.991
		c0.284,0,0.312,0.114,0.312,0.226v0.623c0,0.226-0.028,0.312-0.255,0.312c-0.369,0-1.531-0.085-3.853-0.085
		c-2.068,0-2.691,0.085-3.088,0.085c-0.17,0-0.199-0.17-0.199-0.369v-0.538c0-0.171,0.029-0.256,0.199-0.256h0.737
		c0.68,0,1.36-0.397,1.927-1.246c0.397-0.595,2.408-5.525,3.343-8.018c0.226-0.567,2.522-6.659,2.776-7.423
		c0.085-0.284,0.226-0.653,0.029-0.964c-0.085-0.113-0.199-0.255-0.199-0.368c0-0.085,0.057-0.199,0.284-0.255
		c0.906-0.199,2.748-0.936,3.173-1.416c0.141-0.141,0.226-0.256,0.369-0.256c0.17,0,0.226,0.171,0.312,0.482
		c0.538,1.785,2.747,8.132,3.285,9.945c0.653,2.21,2.493,7.479,2.89,8.244c0.482,0.936,1.217,1.275,1.644,1.275h0.963
		c0.169,0,0.199,0.114,0.199,0.256v0.538c0,0.171-0.03,0.369-0.256,0.369c-0.538,0-1.133-0.085-4.759-0.085
		c-2.352,0-3.344,0.085-3.91,0.085c-0.283,0-0.312-0.17-0.312-0.369v-0.538c0-0.141,0.029-0.256,0.17-0.256h0.794
		c0.764,0,1.02-0.283,0.85-1.02c-0.255-1.02-1.36-4.646-1.699-5.666h-6.206V125.415z M151.367,124.282l-2.125-7.507
		c-0.114-0.424-0.171-0.623-0.312-0.623c-0.171,0-0.256,0.113-0.34,0.369c-0.14,0.368-2.577,7.054-2.805,7.762L151.367,124.282
		L151.367,124.282z"/>
	<path fill="#FFFFFF" d="M165.077,120.287c0-2.096,0-3.909-0.028-4.675c-0.028-0.936-0.398-1.416-0.793-1.416h-1.133
		c-0.141,0-0.17-0.085-0.17-0.198v-0.765c0-0.141,0.028-0.199,0.17-0.199c0.254,0,1.133,0.086,4.22,0.086
		c1.586,0,4.08-0.086,5.242-0.086c2.21,0,3.852,0.794,5.013,1.87c1.021,0.936,1.616,2.04,1.616,3.088
		c0,3.599-2.691,5.214-5.185,5.439v0.199c0.877,0.283,1.331,0.821,1.87,1.501c0.368,0.454,1.926,2.975,2.152,3.315
		c0.17,0.255,1.7,2.409,2.268,3.06c0.339,0.368,1.416,0.594,2.068,0.594c0.198,0,0.226,0.114,0.226,0.226v0.68
		c0,0.17-0.028,0.255-0.226,0.255c-0.227,0-0.963-0.085-3.145-0.085c-0.821,0-1.87,0.057-2.691,0.085
		c-0.851-0.652-2.608-3.938-3.089-4.901c-0.963-1.927-2.124-4.023-3.484-4.023h-0.963v1.445c0,1.671,0.086,4.845,0.141,5.213
		c0.056,0.595,0.284,1.105,0.707,1.105h1.163c0.198,0,0.226,0.085,0.226,0.226v0.68c0,0.198-0.028,0.255-0.454,0.255
		c-0.028,0-0.736-0.085-3.711-0.085c-3.003,0-3.654,0.085-3.966,0.085c-0.227,0-0.227-0.085-0.227-0.284v-0.652
		c0-0.141,0-0.226,0.141-0.226h0.85c0.623,0,1.135-0.198,1.135-0.906c0.056-2.806,0.056-5.469,0.056-8.16V120.287z M169.043,123.347
		c0.539,0.029,0.879,0.029,1.133,0.029c3.74,0,4.619-3.57,4.619-4.902c0-1.302-0.454-2.55-1.077-3.173
		c-1.021-0.906-2.295-1.247-3.145-1.247c-0.482,0-0.85,0.057-1.077,0.256c-0.17,0.113-0.256,0.424-0.312,0.764L169.043,123.347z"/>
	<path fill="#FFFFFF" d="M188.334,129.467c0.086,1.048,0.539,2.635,1.475,2.635h1.105c0.17,0,0.198,0.085,0.198,0.199v0.765
		c0,0.113-0.028,0.198-0.256,0.198c-0.312,0-1.077-0.085-3.145-0.085c-2.408,0-3.399,0.085-3.654,0.085
		c-0.226,0-0.254-0.028-0.254-0.255v-0.737c0-0.085,0.028-0.17,0.17-0.17h1.161c0.907,0,1.247-1.302,1.361-2.21
		c0.254-2.011,0.509-8.698,0.509-9.207l-0.028-4.335c0-1.303-0.284-2.154-1.559-2.154h-0.936c-0.17,0-0.198-0.085-0.198-0.198
		v-0.793c0-0.085,0.028-0.171,0.198-0.171c0.284,0,1.049,0.086,4.392,0.086c1.331,0,2.21-0.086,2.55-0.086
		c0.284,0,0.509,0.029,0.679,0.483c1.814,4.816,3.854,9.519,5.44,13.768c0.312-0.538,2.464-5.807,2.634-6.204
		c0.114-0.284,2.947-7.055,3.089-7.622c0.086-0.312,0.454-0.339,1.302-0.339c4.42,0,5.383-0.086,5.694-0.086
		c0.141,0,0.17,0.086,0.17,0.256v0.652c0,0.17-0.028,0.255-0.226,0.255h-1.247c-0.652,0-0.737,0.51-0.737,1.105
		c0,0.425,0.03,7.394,0.058,7.99c0,0.567,0.084,6.77,0.084,7.281c0,1.077,0.256,1.53,0.652,1.53h1.361
		c0.17,0,0.198,0.085,0.198,0.199v0.708c0,0.17-0.028,0.255-0.254,0.255c-0.339,0-0.851-0.085-4.194-0.085
		c-2.889,0-3.994,0.085-4.363,0.085c-0.198,0-0.226-0.085-0.226-0.255V132.3c0-0.141,0.028-0.199,0.226-0.199h1.588
		c0.482,0,0.736-0.17,0.793-0.963c0.028-0.339,0.112-5.497,0.112-7.479v-8.641h-0.17c-0.284,0.482-3.456,8.188-3.966,9.349
		c-0.595,1.303-3.117,7.593-3.259,7.848c-0.141,0.226-0.339,0.652-0.679,0.652c-0.198,0-0.368-0.198-0.509-0.509
		c-0.086-0.199-3.824-8.981-4.024-9.492c-0.509-1.302-3.115-7.65-3.343-7.989c-0.114,0.397-0.17,7.565-0.17,7.904
		S188.164,126.973,188.334,129.467z"/>
	<path fill="#FFFFFF" d="M220.461,122.327c1.303,0,2.55-0.085,2.889-0.17c0.482-0.113,0.879-0.368,1.304-0.878
		c0.312-0.424,0.652-1.217,0.652-1.756c0-0.199,0.084-0.255,0.226-0.255l0.765,0.085c0.141,0.028,0.256,0.056,0.226,0.226
		c-0.084,0.482-0.084,1.954-0.084,2.946c0,1.275,0.114,2.635,0.17,3.23c0.028,0.17-0.086,0.198-0.226,0.226l-0.681,0.141
		c-0.112,0.028-0.17-0.029-0.226-0.226c-0.114-0.454-0.398-1.105-0.568-1.446c-0.312-0.538-0.991-0.906-1.559-0.991
		c-0.765-0.114-1.643-0.17-2.889-0.17v1.699c0,1.531,0.141,4.278,0.141,4.789c0,1.474,0.312,1.983,0.679,2.153
		c0.425,0.17,0.963,0.255,2.379,0.255c0.482,0,1.672-0.028,2.268-0.085c0.566-0.056,1.416-0.339,2.152-0.936
		c0.737-0.594,2.324-2.351,2.891-3.031c0.112-0.113,0.198-0.141,0.282-0.085l0.484,0.284c0.112,0.056,0.14,0.14,0.112,0.226
		l-1.275,4.279c-0.084,0.255-0.284,0.424-0.623,0.424c-0.141,0-0.765-0.028-2.577-0.057c-1.842,0-4.845-0.028-9.746-0.028
		c-1.049,0-1.842,0.028-2.408,0.028c-0.595,0.029-0.963,0.057-1.218,0.057c-0.198,0-0.256-0.085-0.256-0.312v-0.594
		c0-0.171,0.086-0.256,0.284-0.256h0.851c1.302,0,1.416-0.198,1.416-1.19v-9.491c0-2.352-0.058-5.836-0.086-6.12
		c-0.114-0.906-0.396-1.105-1.161-1.105h-1.105c-0.114,0-0.141-0.085-0.141-0.283v-0.68c0-0.085,0.028-0.199,0.198-0.199
		c0.623,0,1.614,0.086,4.194,0.086l9.944-0.029c0.454,0,0.991-0.057,1.133-0.057c0.142,0,0.198,0.057,0.226,0.141
		c0.114,0.397,1.049,4.279,1.163,4.561c0.056,0.141,0.056,0.199-0.086,0.284l-0.454,0.226c-0.112,0.056-0.254,0.028-0.339-0.114
		c-0.141-0.226-2.691-2.776-3.343-3.173c-0.595-0.369-1.389-0.737-2.154-0.765l-3.738-0.113L220.461,122.327z"/>
	<path fill="#FFFFFF" d="M251.736,124.934c0-2.522-0.028-3.909-0.084-5.326c-0.028-1.105-0.17-3.882-0.256-4.307
		c-0.17-0.708-0.85-1.105-1.5-1.105h-0.907c-0.141,0-0.17-0.085-0.17-0.255v-0.708c0-0.141,0.028-0.199,0.256-0.199
		c0.312,0,1.216,0.086,3.315,0.086c1.698,0,2.379-0.086,2.691-0.086c0.254,0,0.282,0.057,0.282,0.226v0.68
		c0,0.141-0.028,0.255-0.14,0.255h-0.793c-0.482,0-0.765,0.482-0.851,1.501c-0.198,1.898-0.652,8.302-0.652,12.042v4.844
		c0,0.425-0.028,0.936-0.425,0.936c-0.423,0-0.793-0.14-1.105-0.453c-0.482-0.454-1.87-1.955-3.568-3.967l-4.845-5.752
		c-0.482-0.567-4.392-5.439-5.043-6.375h-0.226v5.723c0,2.352,0.254,5.836,0.282,6.913c0.058,1.644,0.568,2.492,1.756,2.492h0.709
		c0.198,0,0.226,0.085,0.226,0.256v0.679c0,0.17-0.028,0.226-0.226,0.226c-0.284,0-1.984-0.085-3.315-0.085
		c-0.879,0-2.833,0.085-3.117,0.085c-0.114,0-0.141-0.057-0.141-0.255v-0.737c0-0.085,0.028-0.17,0.17-0.17h0.993
		c0.623,0,1.075-0.906,1.216-2.805c0.03-0.538,0.256-5.072,0.256-9.265v-2.55c0-1.671-1.019-3.258-2.436-3.286l-0.709-0.028
		c-0.141,0-0.17-0.114-0.17-0.199v-0.764c0-0.114,0.028-0.171,0.17-0.171c0.142,0,0.368,0.029,0.907,0.029
		c0.566,0.028,1.473,0.057,2.945,0.057c0.965,0,1.814-0.057,2.154-0.057c0.368,0,0.595,0.113,0.821,0.369l6.574,8.046l4.845,6.034
		h0.112v-2.577H251.736z"/>
	<path fill="#FFFFFF" d="M265.619,114.422h-0.993c-0.907,0-2.606,0.028-3.797,0.454c-0.623,0.454-1.87,2.182-2.577,3.201
		c-0.086,0.141-0.17,0.226-0.284,0.199l-0.623-0.226c-0.114-0.028-0.141-0.17-0.114-0.255c0.312-1.19,1.247-4.93,1.361-5.497
		c0.084-0.369,0.225-0.482,0.425-0.482c0.198,0,0.282,0.113,0.538,0.424c0.312,0.397,0.85,0.653,1.87,0.708
		c1.5,0.085,2.691,0.171,5.638,0.171h1.643c3.089,0,4.306-0.114,5.497-0.171c0.623-0.028,1.729-0.368,2.068-0.708
		c0.284-0.283,0.454-0.424,0.652-0.424s0.284,0.113,0.339,0.454l0.851,5.637c0.028,0.114-0.028,0.226-0.114,0.256l-0.595,0.226
		c-0.112,0.029-0.17-0.056-0.284-0.255c-0.621-1.02-1.729-2.492-2.436-3.173c-0.707-0.424-3.229-0.538-3.883-0.538h-0.936v7.791
		c0,0.397,0,8.33,0.03,8.754c0.056,0.708,0.282,1.133,0.963,1.133h1.275c0.254,0,0.284,0.085,0.284,0.284v0.652
		c0,0.141-0.03,0.226-0.284,0.226c-0.284,0-1.191-0.085-4.336-0.085c-3.003,0-4.192,0.085-4.59,0.085
		c-0.225,0-0.254-0.113-0.254-0.339v-0.538c0-0.199,0.028-0.284,0.198-0.284h1.445c0.568,0,0.907-0.339,0.963-0.85
		c0.058-0.595,0.058-9.293,0.058-9.831L265.619,114.422L265.619,114.422z"/>
	<path fill="#FFFFFF" d="M282.472,126.918c0.114,0,0.198,0.028,0.198,0.226c0.058,0.879,0.454,2.097,1.135,3.202
		c0.821,1.303,2.21,1.926,3.568,1.926c1.361,0,3.542-0.906,3.542-3.144c0-2.352-0.454-3.032-4.138-4.42
		c-0.85-0.312-2.661-1.218-4.108-2.465c-0.991-0.878-1.416-2.379-1.416-4.023c0-1.729,0.425-2.889,2.126-4.165
		c1.275-0.963,2.352-1.36,4.08-1.36c2.068,0,3.173,0.339,3.768,0.567c0.282,0.114,0.482,0.057,0.652-0.14l0.368-0.369
		c0.114-0.114,0.256-0.17,0.425-0.17c0.198,0,0.254,0.312,0.284,0.482l0.452,4.844c0,0.114-0.056,0.141-0.139,0.17l-0.623,0.199
		c-0.141,0.057-0.284,0-0.37-0.199c-0.311-0.821-0.793-1.926-1.756-2.946c-0.707-0.793-1.559-1.19-2.833-1.19
		c-2.124,0-3.003,1.841-3.003,2.578c0,1.048,0.028,1.898,0.737,2.607c0.736,0.764,2.352,1.445,3.74,1.841
		c1.359,0.397,2.464,1.105,3.626,2.153c1.105,0.992,1.557,2.239,1.557,4.222c0,3.456-2.464,6.261-6.204,6.261
		c-2.55,0-3.883-0.424-5.071-1.217c-0.339-0.226-0.509-0.312-0.652-0.312c-0.17,0-0.284,0.198-0.454,0.482
		c-0.17,0.312-0.311,0.339-0.509,0.339c-0.312,0-0.425-0.14-0.398-0.453l0.454-5.384c0.028-0.198,0.114-0.198,0.226-0.198
		L282.472,126.918z"/>
</g>
</svg>
